<ttFont>
          <CharString index="0">
            -95 callgsubr
            53 vhcurveto
            return
          </CharString>
          <CharString index="1">
            26 -102 callgsubr
            return
          </CharString>
          <CharString index="2">
            -26 -102 callsubr
            return
          </CharString>
          <CharString index="3">
            -53 -26 -82 callgsubr
            return
          </CharString>
          <CharString index="4">
            26 5 -5 -26 hvcurveto
            return
          </CharString>
          <CharString index="5">
            -5 -5 -26 vhcurveto
            return
          </CharString>
          <CharString index="6">
            63 hlineto
            14 11 3 6 7 hvcurveto
            -87 -101 callgsubr
          </CharString>
          <CharString index="7">
            -107 callsubr
            -101 callsubr
          </CharString>
          <CharString index="8">
            5 26 hvcurveto
            return
          </CharString>
          <CharString index="9">
            vlineto
            -107 callsubr
            return
          </CharString>
          <CharString index="10">
            -88 callsubr
            -112 -65 callgsubr
            101 -106 callgsubr
            return
          </CharString>
          <CharString index="11">
            53 -26 26 -53 vhcurveto
            return
          </CharString>
          <CharString index="12">
            -71 callsubr
            147 -72 callsubr
            97 hlineto
            return
          </CharString>
          <CharString index="13">
            -107 callgsubr
            227 -86 callgsubr
            return
          </CharString>
          <CharString index="14">
            104 callsubr
            302 72 callgsubr
            return
          </CharString>
          <CharString index="15">
            hlineto
            -103 callsubr
            return
          </CharString>
          <CharString index="16">
            -87 callsubr
            vlineto
            endchar
          </CharString>
          <CharString index="17">
            vlineto
            -100 callsubr
          </CharString>
          <CharString index="18">
            vlineto
            -86 callsubr
            return
          </CharString>
          <CharString index="19">
            hlineto
            -104 callsubr
            return
          </CharString>
          <CharString index="20">
            -32 callgsubr
            5 callgsubr
            return
          </CharString>
          <CharString index="21">
            -105 callsubr
            -44 -103 callgsubr
            return
          </CharString>
          <CharString index="22">
            -68 callsubr
            -69 -295 hlineto
            32 callgsubr
            return
          </CharString>
          <CharString index="23">
            vlineto
            -84 callgsubr
            return
          </CharString>
          <CharString index="24">
            26 53 hvcurveto
            return
          </CharString>
          <CharString index="25">
            rmoveto
            68 callgsubr
            return
          </CharString>
          <CharString index="26">
            -154 144 callsubr
            59 -20 -103 callgsubr
            132 -106 callgsubr
            20 -92 callsubr
            -305 -99 callgsubr
            -203 13 callgsubr
            37 59 -37 119 callgsubr
            34 8 -2 53 -2 vhcurveto
            -11 1 rlineto
            return
          </CharString>
          <CharString index="27">
            rmoveto
            -105 callsubr
            return
          </CharString>
          <CharString index="28">
            10 12 2 20 28 vvcurveto
            133 vlineto
            13 -3 8 -5 5 vhcurveto
            return
          </CharString>
          <CharString index="29">
            -29 -15 -14 -23 -2 hvcurveto
            -2 hlineto
            23 -2 -16 14 -29 hhcurveto
            return
          </CharString>
          <CharString index="30">
            -58 callsubr
            26 callsubr
            0 15 -39 36 -68 vhcurveto
            78 -147 rlineto
            -3 -5 -7 -1 -10 hhcurveto
            return
          </CharString>
          <CharString index="31">
            -59 172 -36 callsubr
            -392 hlineto
            -95 callgsubr
            53 vhcurveto
            234 62 -213 -3 callsubr
            return
          </CharString>
          <CharString index="32">
            63 -94 callgsubr
            return
          </CharString>
          <CharString index="33">
            -96 callsubr
            -81 209 callgsubr
            5 5 26 vhcurveto
            39 -92 callsubr
            return
          </CharString>
          <CharString index="34">
            -103 callgsubr
            305 -106 callgsubr
            return
          </CharString>
          <CharString index="35">
            32 -70 callgsubr
            142 -56 callsubr
            return
          </CharString>
          <CharString index="36">
            rmoveto
            -88 callgsubr
            return
          </CharString>
          <CharString index="37">
            -275 -143 2 hlineto
            23 2 14 16 29 vvcurveto
            147 -98 callgsubr
            -83 -88 callsubr
            -96 69 85 -106 callgsubr
            41 -92 callsubr
            -121 vlineto
            -83 callgsubr
            -68 -59 68 hlineto
            26 8 -8 -26 hvcurveto
            -116 -7 callsubr
            132 106 -289 68 563 return
          </CharString>
          <CharString index="38">
            171 -71 callsubr
            return
          </CharString>
          <CharString index="39">
            -104 callsubr
            -95 69 84 -59 callsubr
            47 return
          </CharString>
          <CharString index="40">
            -103 callsubr
            -157 -99 callgsubr
            return
          </CharString>
          <CharString index="41">
            -92 callsubr
            -27 callgsubr
            return
          </CharString>
          <CharString index="42">
            rmoveto
            233 callgsubr
            return
          </CharString>
          <CharString index="43">
            -80 callsubr
            -62 -73 callsubr
            62 hlineto
            26 5 -5 -26 hvcurveto
            -113 90 rmoveto
            -104 callsubr
            -327 -51 callgsubr
            327 -98 callgsubr
            return
          </CharString>
          <CharString index="44">
            vlineto
            -92 callgsubr
          </CharString>
          <CharString index="45">
            -18 callgsubr
            172 vlineto
            26 5 5 26 vhcurveto
            42 59 -59 158 callgsubr
            return
          </CharString>
          <CharString index="46">
            -98 callgsubr
            endchar
          </CharString>
          <CharString index="47">
            vlineto
            -30 callsubr
            return
          </CharString>
          <CharString index="48">
            -106 callgsubr
            44 -92 callsubr
            -175 38 callgsubr
            return
          </CharString>
          <CharString index="49">
            rmoveto
            -107 callgsubr
            return
          </CharString>
          <CharString index="50">
            -58 callsubr
            305 73 callgsubr
            24 10 -9 -27 hvcurveto
            -295 195 callsubr
            return
          </CharString>
          <CharString index="51">
            vlineto
            13 -3 9 -5 5 vhcurveto
            return
          </CharString>
          <CharString index="52">
            -80 callsubr
            -27 230 callgsubr
            -68 228 callsubr
            67 115 callsubr
            -49 249 callgsubr
            -106 callgsubr
            28 -92 callsubr
            -39 68 229 callsubr
            -68 hlineto
            280 callsubr
            49 -92 callsubr
            return
          </CharString>
          <CharString index="53">
            -34 callgsubr
            317 return
          </CharString>
          <CharString index="54">
            -69 callsubr
            198 32 -70 callgsubr
            91 -22 callsubr
            -360 -138 rmoveto
            138 156 154 callgsubr
            -240 -257 41 callsubr
            return
          </CharString>
          <CharString index="55">
            115 -69 -104 vlineto
            -26 -5 -5 -26 vhcurveto
            -34 -73 callsubr
            return
          </CharString>
          <CharString index="56">
            -249 -98 callsubr
            return
          </CharString>
          <CharString index="57">
            -58 callsubr
            185 112 callsubr
            19 -46 30 -63 vhcurveto
            101 -213 122 callsubr
            return
          </CharString>
          <CharString index="58">
            282 callsubr
            -106 callgsubr
            63 -92 callsubr
            -51 69 62 -98 callgsubr
            164 callgsubr
            49 -106 callgsubr
            return
          </CharString>
          <CharString index="59">
            -88 callsubr
            -327 15 callgsubr
            302 vlineto
            26 5 5 26 vhcurveto
            return
          </CharString>
          <CharString index="60">
            19 callgsubr
            88 -426 69 -28 callsubr
          </CharString>
          <CharString index="61">
            57 callsubr
            -28 callsubr
          </CharString>
          <CharString index="62">
            -28 callgsubr
            111 167 rlineto
            return
          </CharString>
          <CharString index="63">
            hlineto
            -60 callgsubr
            87 vlineto
            endchar
          </CharString>
          <CharString index="64">
            vlineto
            -21 callsubr
            return
          </CharString>
          <CharString index="65">
            hlineto
            -64 callgsubr
            -80 return
          </CharString>
          <CharString index="66">
            12 callsubr
            -426 236 callsubr
          </CharString>
          <CharString index="67">
            47 -38 callgsubr
            return
          </CharString>
          <CharString index="68">
            -14 3 -8 6 -5 vhcurveto
            -44 -6 -15 -33 -41 vvcurveto
            -125 182 callsubr
            18 12 4 11 7 hvcurveto
            -93 69 221 -69 -45 269 callgsubr
            -76 -103 callgsubr
            107 -106 callgsubr
            return
          </CharString>
          <CharString index="69">
            71 -104 callgsubr
            209 91 -209 -63 callsubr
          </CharString>
          <CharString index="70">
            rmoveto
            -106 hlineto
            -79 callsubr
            return
          </CharString>
          <CharString index="71">
            -44 callgsubr
            -69 return
          </CharString>
          <CharString index="72">
            vlineto
            26 8 8 26 vhcurveto
            return
          </CharString>
          <CharString index="73">
            -8 -26 vhcurveto
            return
          </CharString>
          <CharString index="74">
            -92 callsubr
            -196 53 callsubr
            return
          </CharString>
          <CharString index="75">
            -60 callsubr
            269 return
          </CharString>
          <CharString index="76">
            -104 callsubr
            -25 callsubr
            return
          </CharString>
          <CharString index="77">
            -107 callsubr
            -53 callgsubr
            return
          </CharString>
          <CharString index="78">
            177 callsubr
            49 -9 callgsubr
            return
          </CharString>
          <CharString index="79">
            1 callsubr
            endchar
          </CharString>
          <CharString index="80">
            -98 callsubr
            82 return
          </CharString>
          <CharString index="81">
            -327 -98 callsubr
            return
          </CharString>
          <CharString index="82">
            -26 callsubr
            109 -104 callgsubr
            125 -98 callgsubr
            -62 -59 41 -92 callsubr
            -103 -99 callgsubr
            -67 -73 callsubr
            return
          </CharString>
          <CharString index="83">
            78 callsubr
            105 40 callgsubr
            return
          </CharString>
          <CharString index="84">
            vlineto
            23 callgsubr
          </CharString>
          <CharString index="85">
            -56 callsubr
            97 hlineto
            return
          </CharString>
          <CharString index="86">
            -104 callsubr
            25 callsubr
            return
          </CharString>
          <CharString index="87">
            26 vhcurveto
            34 59 return
          </CharString>
          <CharString index="88">
            171 4 callgsubr
            return
          </CharString>
          <CharString index="89">
            -105 callgsubr
            197 -98 callgsubr
            return
          </CharString>
          <CharString index="90">
            142 hlineto
            -74 callsubr
            -131 return
          </CharString>
          <CharString index="91">
            -55 callgsubr
            203 hmoveto
            59 return
          </CharString>
          <CharString index="92">
            -107 callgsubr
            125 -40 callsubr
            -95 -195 hlineto
            -107 callsubr
            return
          </CharString>
          <CharString index="93">
            -89 6 -46 -49 callgsubr
            return
          </CharString>
          <CharString index="94">
            rmoveto
            -83 callgsubr
            -40 -103 callgsubr
            365 105 vlineto
            return
          </CharString>
          <CharString index="95">
            -98 callsubr
            102 hlineto
            return
          </CharString>
          <CharString index="96">
            hlineto
            -72 callgsubr
            return
          </CharString>
          <CharString index="97">
            168 -91 callgsubr
            301 196 rmoveto
            return
          </CharString>
          <CharString index="98">
            -98 callsubr
            40 hlineto
            27 20 9 24 8 hvcurveto
            return
          </CharString>
          <CharString index="99">
            -71 callsubr
            174 32 -70 callgsubr
            115 -22 callsubr
            -426 63 callgsubr
            570 280 rmoveto
            -413 -59 65 hlineto
            -25 callgsubr
            -99 -99 callgsubr
            -168 142 hlineto
            -50 callgsubr
            88 216 callsubr
          </CharString>
          <CharString index="100">
            -99 callgsubr
            -41 86 callgsubr
            113 callgsubr
            83 -104 callgsubr
            return
          </CharString>
          <CharString index="101">
            -62 -98 callsubr
            75 38 callsubr
            -83 return
          </CharString>
          <CharString index="102" raw="1">
            f70746ac 1d0b  
          </CharString>
          <CharString index="103">
            -103 callsubr
            -211 53 callsubr
            181 240 callsubr
            198 62 -177 -103 callgsubr
            138 266 callsubr
            26 callsubr
            13 -3 8 -5 5 vhcurveto
            return
          </CharString>
          <CharString index="104">
            -103 callgsubr
            153 56 vlineto
            -39 callgsubr
            return
          </CharString>
          <CharString index="105">
            -99 callgsubr
            107 callgsubr
            return
          </CharString>
          <CharString index="106">
            -327 -60 callsubr
            -52 callsubr
            return
          </CharString>
          <CharString index="107">
            -104 callsubr
            -465 105 callsubr
            105 -69 -94 -3 callgsubr
            -94 return
          </CharString>
          <CharString index="108">
            5 callgsubr
            vlineto
            return
          </CharString>
          <CharString index="109">
            rmoveto
            -50 -1 -25 -26 -52 vvcurveto
            -81 callsubr
            144 hlineto
            203 hmoveto
            59 -541 -59 83 221 callgsubr
            -181 -98 callsubr
            240 -104 callgsubr
            327 vlineto
            50 -23 26 -48 3 vhcurveto
            78 vlineto
            endchar
          </CharString>
          <CharString index="110">
            17 callgsubr
            -408 -59 173 -78 -19 vlineto
            -104 callsubr
            -327 vlineto
            return
          </CharString>
          <CharString index="111">
            -3 callsubr
            220 return
          </CharString>
          <CharString index="112">
            221 551 rmoveto
            49 -21 22 -46 vhcurveto
            -57 hlineto
            -46 -21 -22 -49 hvcurveto
            -184 vlineto
            -49 21 -22 46 vhcurveto
            57 hlineto
            46 21 22 49 hvcurveto
            322 -112 rmoveto
            49 -21 22 -46 vhcurveto
            -57 hlineto
            -46 -21 -22 -49 hvcurveto
            -184 vlineto
            -49 21 -22 46 vhcurveto
            57 hlineto
            46 21 22 49 hvcurveto
            -378 305 rmoveto
            -25 -3 -5 -25 vhcurveto
            -23 hlineto
            -25 -3 5 25 hvcurveto
            166 vlineto
            25 3 5 25 vhcurveto
            23 hlineto
            25 3 -5 -25 hvcurveto
            322 -462 rmoveto
            -25 -3 -5 -25 vhcurveto
            -23 hlineto
            -25 -3 5 25 hvcurveto
            166 vlineto
            25 3 5 25 vhcurveto
            23 hlineto
            25 3 -5 -25 hvcurveto
            -95 376 rmoveto
            -272 -622 rlineto
            60 hlineto
            273 622 rlineto
            return
          </CharString>
          <CharString index="113">
            16 -46 callsubr
          </CharString>
          <CharString index="114">
            5 hlineto
            56 15 30 46 hvcurveto
            14 -62 -10 vlineto
            -21 -5 -4 -14 vhcurveto
            -24 -25 35 -42 hhcurveto
            -6 hlineto
            -55 -17 -29 -47 hvcurveto
            -14 62 return
          </CharString>
          <CharString index="115">
            -26 -8 -8 -26 vhcurveto
            -126 hlineto
            -15 callsubr
            return
          </CharString>
          <CharString index="116">
            hlineto
            225 callgsubr
            175 193 callgsubr
            126 -63 callgsubr
            33 callgsubr
            -175 hlineto
            -68 callgsubr
            -244 104 callsubr
            219 72 callgsubr
            -123 69 256 callgsubr
            63 -186 hlineto
            -107 callsubr
            return
          </CharString>
          <CharString index="117">
            -77 callgsubr
            endchar
          </CharString>
          <CharString index="118">
            32 callgsubr
            98 vlineto
            -18 callsubr
            return
          </CharString>
          <CharString index="119">
            15 callgsubr
            302 211 callgsubr
            return
          </CharString>
          <CharString index="120">
            vlineto
            37 callsubr
            return
          </CharString>
          <CharString index="121">
            -59 235 -78 -101 225 callsubr
            81 38 callsubr
            -78 53 -69 -190 69 78 296 callsubr
            88 -98 callgsubr
            -81 hlineto
            141 callsubr
            return
          </CharString>
          <CharString index="122">
            rlineto
            72 hlineto
            65 130 63 -130 rlineto
            72 hlineto
            return
          </CharString>
          <CharString index="123">
            -96 callsubr
            -107 -59 86 -66 callsubr
            -29 hlineto
            -26 -5 5 26 hvcurveto
            88 -69 -99 -98 callsubr
            71 -104 callgsubr
            return
          </CharString>
          <CharString index="124">
            -107 callsubr
            -47 callsubr
          </CharString>
          <CharString index="125">
            -80 hlineto
            -78 callsubr
            return
          </CharString>
          <CharString index="126">
            -106 callgsubr
            60 hlineto
            return
          </CharString>
          <CharString index="127">
            rmoveto
            -624 159 callsubr
            153 266 callsubr
            212 vlineto
            13 -3 8 -5 5 vhcurveto
            220 -354 hlineto
            -18 callgsubr
            180 -41 callgsubr
            -202 vlineto
            -95 callgsubr
            56 vhcurveto
            0 vlineto
            -116 -161 rlineto
            74 hlineto
            128 180 rlineto
            -130 65 -28 callsubr
          </CharString>
          <CharString index="128">
            -69 1 callgsubr
            return
          </CharString>
          <CharString index="129">
            -59 211 hlineto
            -100 callgsubr
            281 -206 -98 callsubr
            return
          </CharString>
          <CharString index="130">
            113 -373 69 -28 callsubr
          </CharString>
          <CharString index="131">
            -106 callsubr
            41 18 callgsubr
            return
          </CharString>
          <CharString index="132">
            -51 callsubr
            19 callgsubr
            return
          </CharString>
          <CharString index="133">
            227 vlineto
            return
          </CharString>
          <CharString index="134">
            -24 -8 -9 -26 vhcurveto
            -60 hlineto
            -26 -5 5 26 hvcurveto
            227 vlineto
            24 callsubr
            74 hlineto
            return
          </CharString>
          <CharString index="135">
            -106 callgsubr
            78 hlineto
            -288 -205 -77 callsubr
            538 485 62 callsubr
            -51 vlineto
            -13 callgsubr
            return
          </CharString>
          <CharString index="136">
            -83 callgsubr
            -114 -103 callgsubr
            115 -106 callgsubr
            68 59 -68 218 callgsubr
            10 -92 callsubr
            -45 52 56 -98 callgsubr
            -35 -88 callsubr
            return
          </CharString>
          <CharString index="137">
            -124 -84 callsubr
            -110 vlineto
            -47 25 -30 53 vhcurveto
            99 hlineto
            13 9 2 6 6 hvcurveto
            -65 69 396 -69 -48 vlineto
            -21 -102 callsubr
            -74 -103 callgsubr
            99 -106 callgsubr
            endchar
          </CharString>
          <CharString index="138">
            -78 callsubr
            297 callgsubr
            -249 182 callsubr
            29 16 14 23 2 hvcurveto
            2 hlineto
            -23 2 15 -14 29 hhcurveto
            99 217 callsubr
            return
          </CharString>
          <CharString index="139">
            53 -27 -21 15 -74 hhcurveto
            -37 -62 37 hlineto
            43 14 -17 -38 19 hvcurveto
            61 -123 -175 -245 rlineto
            77 hlineto
            145 203 rlineto
            return
          </CharString>
          <CharString index="140">
            rmoveto
            53 -84 rlineto
            76 hlineto
            -85 127 rlineto
            -87 hlineto
            -85 -127 rlineto
            76 hlineto
            return
          </CharString>
          <CharString index="141">
            rmoveto
            -277 hlineto
            -60 callgsubr
            87 309 vlineto
            -452 -426 -24 callsubr
            556 485 rmoveto
            -764 150 callsubr
            55 62 -34 -78 callgsubr
            104 -426 69 5 callgsubr
            hlineto
            endchar
          </CharString>
          <CharString index="142">
            rmoveto
            56 hlineto
            -39 callgsubr
            199 59 -463 159 callsubr
            275 77 -58 callsubr
            180 -41 callgsubr
            -202 vlineto
            -95 callgsubr
            55 vhcurveto
            -115 -161 rlineto
            74 hlineto
            135 190 rlineto
            30 vlineto
            endchar
          </CharString>
          <CharString index="143">
            -59 75 25 callgsubr
            return
          </CharString>
          <CharString index="144">
            -106 callsubr
            62 -92 callsubr
            return
          </CharString>
          <CharString index="145">
            -92 callsubr
            -66 -99 callgsubr
            return
          </CharString>
          <CharString index="146">
            26 callgsubr
            142 callgsubr
            return
          </CharString>
          <CharString index="147">
            -287 hlineto
            45 callsubr
            return
          </CharString>
          <CharString index="148">
            -30 callgsubr
            167 19 callsubr
            return
          </CharString>
          <CharString index="149">
            210 callgsubr
            266 callgsubr
            117 251 174 callgsubr
            return
          </CharString>
          <CharString index="150">
            hlineto
            39 callsubr
            return
          </CharString>
          <CharString index="151">
            rmoveto
            -113 131 113 hlineto
            -182 return
          </CharString>
          <CharString index="152">
            143 callsubr
            -69 -298 -60 callsubr
            239 87 -239 vlineto
            return
          </CharString>
          <CharString index="153">
            -107 callsubr
            102 hlineto
            21 17 7 15 12 hvcurveto
            -15 251 callsubr
            return
          </CharString>
          <CharString index="154">
            -82 callsubr
            284 callgsubr
            78 hlineto
            return
          </CharString>
          <CharString index="155">
            -90 98 532 212 callsubr
            44 -92 callsubr
            -156 -99 callgsubr
            -73 -60 73 -92 callsubr
            -164 -89 callsubr
            101 -68 -112 -98 callsubr
            84 -104 callgsubr
            190 vlineto
            29 -14 14 -23 4 vhcurveto
            23 2 14 17 29 vvcurveto
            179 -98 callgsubr
            -84 -88 callsubr
            -113 68 vlineto
            endchar
          </CharString>
          <CharString index="156">
            128 callgsubr
            17 57 callsubr
            266 -69 -65 vlineto
            -83 callgsubr
            -41 -103 callgsubr
            197 -106 callgsubr
            endchar
          </CharString>
          <CharString index="157">
            81 callgsubr
            124 -104 callgsubr
            return
          </CharString>
          <CharString index="158">
            -347 hlineto
            63 callsubr
            return
          </CharString>
          <CharString index="159">
            69 390 vlineto
            27 10 9 24 14 callgsubr
            -395 69 return
          </CharString>
          <CharString index="160">
            -99 callgsubr
            -35 return
          </CharString>
          <CharString index="161">
            -327 -41 callsubr
          </CharString>
          <CharString index="162">
            rmoveto
            -40 -99 callgsubr
            -66 211 callsubr
            -66 -48 -51 callgsubr
            48 vlineto
            endchar
          </CharString>
          <CharString index="163">
            -690 60 callsubr
          </CharString>
          <CharString index="164">
            -45 callsubr
            -117 69 return
          </CharString>
          <CharString index="165">
            -107 callsubr
            234 62 -213 4 callsubr
            -346 hlineto
            -62 callsubr
            -134 65 -28 callsubr
          </CharString>
          <CharString index="166">
            -88 callsubr
            -173 -98 callsubr
            68 -92 callsubr
            return
          </CharString>
          <CharString index="167">
            -57 callgsubr
            endchar
          </CharString>
          <CharString index="168">
            -55 callsubr
            endchar
          </CharString>
          <CharString index="169">
            rmoveto
            -144 -221 -113 159 callgsubr
            return
          </CharString>
          <CharString index="170">
            -107 callsubr
            86 -104 callgsubr
            132 -69 -121 -89 callsubr
            195 return
          </CharString>
          <CharString index="171">
            -78 53 callgsubr
            return
          </CharString>
          <CharString index="172">
            -60 238 90 rmoveto
            289 callgsubr
            204 88 174 callgsubr
            -119 90 rmoveto
            179 -106 callgsubr
            57 -92 callsubr
            -106 68 117 -98 callgsubr
            -98 115 callgsubr
            296 callsubr
            195 -61 callsubr
          </CharString>
          <CharString index="173">
            8 callgsubr
            -87 69 return
          </CharString>
          <CharString index="174">
            -54 callsubr
            -69 return
          </CharString>
          <CharString index="175">
            71 callgsubr
            348 415 rmoveto
            -552 -59 235 -78 -101 hlineto
            231 callgsubr
            104 -324 10 callgsubr
          </CharString>
          <CharString index="176">
            -265 104 callsubr
            240 72 callgsubr
            -174 69 284 callgsubr
            return
          </CharString>
          <CharString index="177">
            hlineto
            54 callgsubr
            return
          </CharString>
          <CharString index="178">
            -59 65 -406 hlineto
            -30 callsubr
            406 return
          </CharString>
          <CharString index="179">
            -26 -6 4 26 hvcurveto
            20 vlineto
            26 6 4 26 vhcurveto
            60 return
          </CharString>
          <CharString index="180">
            26 hlineto
            56 22 30 46 hvcurveto
            60 -64 -46 vlineto
            -23 -3 -12 -24 vhcurveto
            -79 -13 82 -81 hhcurveto
            -29 hlineto
            -55 -22 -29 -47 hvcurveto
            -60 64 47 vlineto
            21 5 13 25 vhcurveto
            70 7 -82 95 hhcurveto
            return
          </CharString>
          <CharString index="181">
            -29 callgsubr
            291 return
          </CharString>
          <CharString index="182">
            300 callgsubr
            -374 209 callsubr
            -327 vlineto
            -47 20 -25 41 -6 vhcurveto
            -75 -141 15 callsubr
            -75 143 rlineto
            34 8 17 25 43 vvcurveto
            3 callgsubr
          </CharString>
          <CharString index="183">
            -74 hlineto
            22 -52 25 -58 15 -42 21 -39 rlinecurve
            -4 hlineto
            -25 42 -29 39 -59 64 -42 46 rcurveline
            return
          </CharString>
          <CharString index="184">
            rmoveto
            210 232 rlineto
            94 vlineto
            -295 -326 rlineto
            9 257 71 callgsubr
            -204 415 rmoveto
            -59 235 -78 -101 vlineto
            231 callgsubr
            137 59 vlineto
            endchar
          </CharString>
          <CharString index="185">
            -58 callsubr
            395 return
          </CharString>
          <CharString index="186">
            -98 callsubr
            63 -91 callsubr
          </CharString>
          <CharString index="187">
            -65 292 129 callgsubr
            75 59 -387 -59 243 -78 -89 vlineto
            -53 -26 -26 -53 hvcurveto
            198 callsubr
            return
          </CharString>
          <CharString index="188">
            -105 callsubr
            113 callsubr
            227 85 callgsubr
            return
          </CharString>
          <CharString index="189">
            101 callsubr
            75 -69 -86 vlineto
            return
          </CharString>
          <CharString index="190">
            -249 35 callgsubr
          </CharString>
          <CharString index="191">
            -106 callgsubr
            55 -92 callsubr
            return
          </CharString>
          <CharString index="192">
            rmoveto
            27 hlineto
            53 121 rlineto
            39 -80 vlineto
            return
          </CharString>
          <CharString index="193">
            -28 -20 28 callgsubr
            -59 424 59 vlineto
            -359 -137 rmoveto
            -298 -60 callsubr
            239 125 59 -194 -287 vlineto
            143 callsubr
            vlineto
            290 -256 rmoveto
            -258 -279 rlineto
            82 hlineto
            176 195 rlineto
            return
          </CharString>
          <CharString index="194">
            -83 callgsubr
            -41 -103 callgsubr
            227 -106 callgsubr
            return
          </CharString>
          <CharString index="195">
            -43 321 129 callgsubr
            68 59 -409 -59 272 -78 -123 vlineto
            -104 callsubr
            -40 -12 callsubr
            26 5 -5 -26 hvcurveto
            -25 180 callsubr
            25 -69 -40 -84 callsubr
            return
          </CharString>
          <CharString index="196">
            -122 93 532 212 callsubr
            36 -92 callsubr
            -40 vlineto
            -48 -5 -33 -18 -42 vhcurveto
            -142 -311 rlineto
            -58 239 59 -168 vlineto
            137 299 rlineto
            20 47 6 34 49 vvcurveto
            55 -98 callgsubr
            -77 -88 callsubr
            -121 68 vlineto
            endchar
          </CharString>
          <CharString index="197">
            40 callgsubr
            -40 -103 callgsubr
            227 -74 callgsubr
            return
          </CharString>
          <CharString index="198">
            -103 callgsubr
            130 -106 callgsubr
            return
          </CharString>
          <CharString index="199">
            26 14 callgsubr
            return
          </CharString>
          <CharString index="200">
            92 250 callgsubr
            return
          </CharString>
          <CharString index="201">
            rmoveto
            -426 -59 282 213 callsubr
            -204 265 callsubr
            -243 235 callgsubr
          </CharString>
          <CharString index="202">
            -13 callgsubr
            102 hlineto
            25 return
          </CharString>
          <CharString index="203">
            rmoveto
            100 -130 rlineto
            76 hlineto
            -100 130 rlineto
            return
          </CharString>
          <CharString index="204">
            -98 callsubr
            63 -32 callgsubr
            281 -35 callsubr
            71 -236 hlineto
            32 callgsubr
            77 callgsubr
            return
          </CharString>
          <CharString index="205">
            rmoveto
            -40 -99 callgsubr
            -68 211 callsubr
            -64 -46 -98 callsubr
            268 callgsubr
            46 vlineto
            endchar
          </CharString>
          <CharString index="206">
            229 callgsubr
            -165 -79 callgsubr
            185 return
          </CharString>
          <CharString index="207">
            -91 284 269 callsubr
            -244 -298 144 174 callgsubr
            -203 -89 callsubr
            102 -69 -113 -98 callsubr
            86 -104 callgsubr
            225 -98 callgsubr
            -96 180 hlineto
            endchar
          </CharString>
          <CharString index="208">
            -104 callsubr
            121 callgsubr
            return
          </CharString>
          <CharString index="209">
            64 callgsubr
            -69 return
          </CharString>
          <CharString index="210">
            -84 callsubr
            -138 -98 callsubr
            return
          </CharString>
          <CharString index="211">
            -27 callsubr
            62 113 callsubr
            return
          </CharString>
          <CharString index="212">
            -98 callsubr
            97 -104 callgsubr
            return
          </CharString>
          <CharString index="213">
            -107 callgsubr
            178 return
          </CharString>
          <CharString index="214">
            -59 75 -236 hlineto
            -84 callgsubr
            -153 vlineto
            return
          </CharString>
          <CharString index="215">
            -59 174 hlineto
            -25 callgsubr
            -115 -99 callgsubr
            -85 -59 85 -92 callsubr
            -205 -89 callsubr
            116 -69 -127 -98 callsubr
            86 -104 callgsubr
            return
          </CharString>
          <CharString index="216">
            43 callgsubr
            311 85 rmoveto
            -144 -259 -106 hlineto
            5 5 3 8 13 vvcurveto
            159 -98 callgsubr
            -82 -88 callsubr
            return
          </CharString>
          <CharString index="217">
            70 callgsubr
            -235 vlineto
            -83 callgsubr
            return
          </CharString>
          <CharString index="218">
            rmoveto
            -78 127 rlineto
            -82 hlineto
            98 -127 rlineto
            return
          </CharString>
          <CharString index="219">
            vlineto
            71 -9 50 0 vhcurveto
            0 return
          </CharString>
          <CharString index="220">
            -61 -103 callgsubr
            return
          </CharString>
          <CharString index="221">
            87 callsubr
            endchar
          </CharString>
          <CharString index="222">
            -104 callgsubr
            112 -98 callgsubr
            return
          </CharString>
          <CharString index="223">
            -65 292 129 callgsubr
            82 59 -394 274 callgsubr
            -43 17 -26 36 -7 vhcurveto
            -54 vlineto
            -21 -4 -5 -22 vhcurveto
            -18 -50 48 hlineto
            44 21 24 43 hvcurveto
            60 21 vlineto
            14 11 3 6 7 hvcurveto
            return
          </CharString>
          <CharString index="224">
            26 5 4 -20 callsubr
            -45 hlineto
            -53 -26 -25 -53 -23 4 -43 8 -27 hvcurveto
            -2 hlineto
            -10 28 -14 29 -23 33 -43 61 rcurveline
            return
          </CharString>
          <CharString index="225">
            26 5 5 92 callsubr
            return
          </CharString>
          <CharString index="226">
            97 callgsubr
            117 return
          </CharString>
          <CharString index="227">
            66 callsubr
            1 callsubr
            endchar
          </CharString>
          <CharString index="228">
            141 callsubr
            146 137 return
          </CharString>
          <CharString index="229">
            rlineto
            -11 -4 -9 -4 -18 hhcurveto
            return
          </CharString>
          <CharString index="230">
            286 callsubr
            vlineto
            -104 callsubr
            -44 -84 callsubr
            -188 -98 callsubr
            184 59 -163 -103 callgsubr
            165 -106 callgsubr
            return
          </CharString>
          <CharString index="231">
            292 callgsubr
            224 80 59 -80 221 107 -92 callsubr
            -207 90 rmoveto
            -280 -50 -59 50 -283 146 callsubr
          </CharString>
          <CharString index="232">
            185 hlineto
            -195 -505 rlineto
            -59 258 59 -190 vlineto
            195 505 rlineto
            return
          </CharString>
          <CharString index="233">
            28 callgsubr
            -419 -59 419 hlineto
            -285 -78 rmoveto
            -69 -328 hlineto
            -30 callsubr
            269 120 59 -189 -317 226 callsubr
            endchar
          </CharString>
          <CharString index="234">
            -104 callsubr
            -464 -98 callsubr
            return
          </CharString>
          <CharString index="235">
            -103 callgsubr
            395 return
          </CharString>
          <CharString index="236">
            206 callsubr
            123 301 callsubr
            -154 rmoveto
            -26 -5 -5 -26 vhcurveto
            -29 275 callgsubr
            60 hlineto
            return
          </CharString>
          <CharString index="237">
            vhcurveto
            -40 128 callsubr
            return
          </CharString>
          <CharString index="238">
            -59 211 hlineto
            220 callsubr
            167 59 -146 -103 callgsubr
            195 218 vlineto
            -157 -167 rlineto
            76 hlineto
            return
          </CharString>
          <CharString index="239">
            vlineto
            29 -14 15 -23 2 vhcurveto
            2 vlineto
            23 2 14 16 29 vvcurveto
            return
          </CharString>
          <CharString index="240">
            -52 8 -36 0 vhcurveto
            0 -23 50 -29 45 vhcurveto
            return
          </CharString>
          <CharString index="241">
            44 -9 64 0 vhcurveto
            0 20 -46 26 -42 vhcurveto
            return
          </CharString>
          <CharString index="242">
            hmoveto
            6 callgsubr
            return
          </CharString>
          <CharString index="243">
            -59 76 249 callsubr
            -141 -84 callsubr
            -144 -98 callsubr
            119 226 callgsubr
            return
          </CharString>
          <CharString index="244">
            327 -98 callgsubr
            -19 78 hlineto
            endchar
          </CharString>
          <CharString index="245">
            -104 callsubr
            58 callgsubr
            -158 -98 callsubr
            184 59 -163 282 callsubr
            -106 callgsubr
            return
          </CharString>
          <CharString index="246">
            -14 callsubr
            99 -87 callsubr
            vlineto
            endchar
          </CharString>
          <CharString index="247">
            -26 vhcurveto
            -60 -103 callgsubr
            26 callsubr
            return
          </CharString>
          <CharString index="248">
            -107 callgsubr
            40 -106 callgsubr
            return
          </CharString>
          <CharString index="249">
            135 callgsubr
            hlineto
            return
          </CharString>
          <CharString index="250">
            -34 callgsubr
            287 return
          </CharString>
          <CharString index="251">
            -98 callsubr
            36 return
          </CharString>
          <CharString index="252">
            -412 -346 813 rmoveto
            140 -132 rlineto
            55 -52 27 -17 0 vvcurveto
            66 hlineto
            -47 201 223 callgsubr
            return
          </CharString>
          <CharString index="253">
            197 -70 callgsubr
            155 callsubr
            endchar
          </CharString>
          <CharString index="254">
            171 rmoveto
            -83 callgsubr
            -110 200 callgsubr
            4 27 1 vhcurveto
            143 hlineto
            return
          </CharString>
          <CharString index="255">
            16 5 8 12 vhcurveto
            25 27 -35 43 hhcurveto
            return
          </CharString>
          <CharString index="256">
            -131 156 callgsubr
            return
          </CharString>
          <CharString index="257">
            -59 68 -406 hlineto
            80 callgsubr
            return
          </CharString>
          <CharString index="258">
            -103 10 485 rmoveto
            93 -485 rlineto
            45 hlineto
            -12 -51 rlineto
            -25 -6 -18 -6 -26 hhcurveto
            -33 -59 54 hlineto
            53 32 27 52 10 hvcurveto
            97 547 rlineto
            -69 hlineto
            -73 -437 -78 437 rlineto
            return
          </CharString>
          <CharString index="259">
            262 callsubr
            297 -69 -93 vlineto
            -83 callgsubr
            -41 -103 callgsubr
            204 -106 callgsubr
            endchar
          </CharString>
          <CharString index="260">
            vlineto
            163 callgsubr
            return
          </CharString>
          <CharString index="261">
            vlineto
            -18 callgsubr
            return
          </CharString>
          <CharString index="262">
            464 -98 callgsubr
            return
          </CharString>
          <CharString index="263">
            -92 callsubr
            -101 -75 -59 75 -563 69 5 callgsubr
            return
          </CharString>
          <CharString index="264">
            -104 callgsubr
            55 -69 -44 vlineto
            68 callgsubr
            return
          </CharString>
          <CharString index="265">
            52 -92 callsubr
            -114 -2 callsubr
            return
          </CharString>
          <CharString index="266">
            -59 172 -36 callsubr
            -392 hlineto
            -95 callgsubr
            53 vhcurveto
            130 62 -109 -103 callgsubr
            return
          </CharString>
          <CharString index="267">
            -98 callsubr
            99 -91 callsubr
          </CharString>
          <CharString index="268">
            -104 callsubr
            -73 -84 callsubr
            -69 -98 callsubr
            225 59 -204 -103 callgsubr
            return
          </CharString>
          <CharString index="269">
            209 callgsubr
            3 5 28 vhcurveto
            return
          </CharString>
          <CharString index="270">
            -78 183 callsubr
            return
          </CharString>
          <CharString index="271">
            -98 callsubr
            92 return
          </CharString>
          <CharString index="272">
            -59 269 -78 -125 184 callsubr
            return
          </CharString>
          <CharString index="273">
            62 hlineto
            98 127 rlineto
            -82 hlineto
            return
          </CharString>
          <CharString index="274">
            243 callgsubr
            -93 callgsubr
          </CharString>
          <CharString index="275">
            -103 callgsubr
            49 -106 callgsubr
            endchar
          </CharString>
          <CharString index="276">
            -69 callsubr
            174 32 -70 callgsubr
            115 -22 callsubr
            return
          </CharString>
          <CharString index="277">
            -392 -95 callsubr
            return
          </CharString>
          <CharString index="278">
            -28 272 699 rmoveto
            -264 -835 rlineto
            68 hlineto
            264 835 rlineto
            endchar
          </CharString>
          <CharString index="279">
            hhcurveto
            -47 callsubr
          </CharString>
          <CharString index="280">
            -238 hlineto
            -89 6 -46 177 callsubr
            49 -26 47 vhcurveto
            return
          </CharString>
          <CharString index="281">
            -59 68 189 callsubr
            111 167 rlineto
            -117 69 392 -35 callsubr
            return
          </CharString>
          <CharString index="282">
            196 634 -196 hlineto
            236 -185 rmoveto
            196 185 -196 hlineto
            return
          </CharString>
          <CharString index="283">
            -73 rmoveto
            -26 -9 -11 -26 vhcurveto
            -37 -58 48 hlineto
            54 35 28 61 hvcurveto
            28 -65 vlineto
            return
          </CharString>
          <CharString index="284">
            0 vhcurveto
            0 -20 return
          </CharString>
          <CharString index="285">
            rmoveto
            -268 -59 100 165 callgsubr
            100 hlineto
            endchar
          </CharString>
          <CharString index="286">
            -8 callgsubr
            -328 -9 callsubr
            -33 69 669 return
          </CharString>
          <CharString index="287">
            254 callgsubr
            -26 -5 5 26 hvcurveto
            return
          </CharString>
          <CharString index="288">
            hlineto
            -43 -26 -17 -36 -7 hvcurveto
            -108 return
          </CharString>
          <CharString index="289">
            -98 callsubr
            101 hlineto
            return
          </CharString>
          <CharString index="290">
            -238 -88 callsubr
            return
          </CharString>
          <CharString index="291">
            -48 callsubr
            104 return
          </CharString>
          <CharString index="292">
            -53 -26 -26 -53 hvcurveto
            83 callsubr
          </CharString>
          <CharString index="293">
            -59 75 165 callgsubr
            75 hlineto
            endchar
          </CharString>
          <CharString index="294">
            hlineto
            195 callgsubr
            return
          </CharString>
          <CharString index="295">
            206 rmoveto
            14 12 2 3 10 hvcurveto
            -121 vlineto
            -24 -7 -7 -23 vhcurveto
            -78 hlineto
            260 callsubr
            88 -106 callgsubr
            return
          </CharString>
          <CharString index="296">
            -376 -98 callsubr
            93 callgsubr
            return
          </CharString>
          <CharString index="297">
            rmoveto
            290 callgsubr
          </CharString>
          <CharString index="298">
            rmoveto
            -236 -58 236 hlineto
            return
          </CharString>
          <CharString index="299">
            -106 callgsubr
            61 return
          </CharString>
          <CharString index="300">
            -77 callsubr
            178 485 rmoveto
            return
          </CharString>
          <CharString index="301">
            -104 callgsubr
            63 -69 -52 -99 callgsubr
            -81 -103 callgsubr
            113 -106 callgsubr
            return
          </CharString>
          <CharString index="302">
            vlineto
            169 callgsubr
            return
          </CharString>
          <CharString index="303">
            263 callgsubr
            197 -75 callgsubr
            return
          </CharString>
          <CharString index="304">
            -158 206 callgsubr
          </CharString>
          <CharString index="305">
            -51 callsubr
            183 callgsubr
            return
          </CharString>
          <CharString index="306">
            -59 68 -406 -98 callsubr
            63 -32 callgsubr
            362 -35 callsubr
            return
          </CharString>
          <CharString index="307">
            rmoveto
            -83 -365 -88 365 rlineto
            -69 hlineto
            123 -432 rlineto
            -190 68 190 vlineto
            118 432 rlineto
            endchar
          </CharString>
          <CharString index="308">
            hlineto
            -60 callgsubr
            117 vlineto
            endchar
          </CharString>
          <CharString index="309">
            241 callsubr
            endchar
          </CharString>
          <CharString index="310">
            300 callgsubr
            -421 -59 280 -78 -126 vlineto
            279 callsubr
            return
          </CharString>
          <CharString index="311">
            69 174 vlineto
            -24 8 20 -9 27 hhcurveto
            40 -104 callgsubr
            327 -61 callsubr
          </CharString>
          <CharString index="312">
            -269 96 callgsubr
          </CharString>
          <CharString index="313">
            -395 -82 callsubr
            return
          </CharString>
          <CharString index="314">
            vlineto
            -64 callgsubr
            -80 return
          </CharString>
          <CharString index="315">
            rmoveto
            112 callgsubr
            return
          </CharString>
          <CharString index="316">
            286 callgsubr
            vlineto
            -104 callsubr
            return
          </CharString>
          <CharString index="317">
            -26 vhcurveto
            -29 -103 callgsubr
            return
          </CharString>
          <CharString index="318">
            -103 callgsubr
            40 return
          </CharString>
          <CharString index="319">
            rmoveto
            -106 callsubr
            return
          </CharString>
          <CharString index="320">
            104 callgsubr
            212 callgsubr
            40 59 return
          </CharString>
          <CharString index="321">
            hlineto
            273 callgsubr
            23 callsubr
          </CharString>
          <CharString index="322">
            -58 callsubr
            194 vlineto
            0 12 -23 39 -67 vhcurveto
            77 -132 rlineto
            -2 -5 -7 -1 -9 hhcurveto
            return
          </CharString>
          <CharString index="323">
            -185 -63 callsubr
          </CharString>
          <CharString index="324">
            -104 callgsubr
            249 -98 callgsubr
            return
          </CharString>
          <CharString index="325">
            -26 -8 -8 -26 130 callsubr
            return
          </CharString>
          <CharString index="326">
            rmoveto
            -66 63 66 vlineto
            endchar
          </CharString>
          <CharString index="327">
            122 callgsubr
            -367 hlineto
            -107 callsubr
            return
          </CharString>
          <CharString index="328">
            -249 160 callsubr
          </CharString>
          <CharString index="329">
            19 -6 26 hhcurveto
            return
          </CharString>
          <CharString index="330">
            -49 308 297 callsubr
            -413 286 callsubr
            vlineto
            -104 callsubr
            return
          </CharString>
          <CharString index="331">
            hmoveto
            233 callgsubr
            return
          </CharString>
          <CharString index="332">
            vlineto
            -104 callsubr
            -62 -98 callsubr
            return
          </CharString>
          <CharString index="333">
            vlineto
            -34 callgsubr
            return
          </CharString>
          <CharString index="334">
            -115 -98 callsubr
            return
          </CharString>
          <CharString index="335">
            -49 -98 callsubr
            return
          </CharString>
          <CharString index="336">
            49 -98 callgsubr
            return
          </CharString>
          <CharString index="337">
            rmoveto
            -88 -84 88 hlineto
            return
          </CharString>
          <CharString index="338">
            273 callsubr
            -194 -98 callsubr
            return
          </CharString>
          <CharString index="339">
            -104 callsubr
            -165 -98 callsubr
            71 -104 callgsubr
            185 return
          </CharString>
          <CharString index="340">
            485 rmoveto
            53 callgsubr
            return
          </CharString>
          <CharString index="341">
            704 rmoveto
            59 -55 vlineto
            -53 -26 -25 -53 hvcurveto
            -86 69 75 vlineto
            26 5 4 26 vhcurveto
            endchar
          </CharString>
          <CharString index="342">
            104 276 callsubr
          </CharString>
          <CharString index="343">
            69 5 callgsubr
            hlineto
            endchar
          </CharString>
          <CharString index="344">
            rmoveto
            26 callsubr
            0 15 -39 36 -68 vhcurveto
            81 -151 rlineto
            -101 -103 callgsubr
            return
          </CharString>
          <CharString index="345">
            rmoveto
            -74 hlineto
            -110 -229 110 -256 rlineto
            74 hlineto
            -113 256 rlineto
            endchar
          </CharString>
          <CharString index="346">
            -78 255 callsubr
            return
          </CharString>
          <CharString index="347">
            -69 -392 hlineto
            -107 callsubr
            return
          </CharString>
          <CharString index="348">
            rmoveto
            -86 73 86 vlineto
            return
          </CharString>
          <CharString index="349">
            -37 callsubr
            102 hlineto
            return
          </CharString>
          <CharString index="350">
            -99 callgsubr
            -62 83 -69 -220 69 78 83 -104 callgsubr
            return
          </CharString>
          <CharString index="351">
            -74 hlineto
            -131 -314 129 -308 rlineto
            74 hlineto
            -132 308 rlineto
            endchar
          </CharString>
          <CharString index="352">
            rmoveto
            167 75 59 -580 -59 436 -108 -89 vlineto
            -104 callsubr
            return
          </CharString>
          <CharString index="353">
            -29 -21 -20 -18 -5 hvcurveto
            18 -5 -20 20 -32 hhcurveto
            -71 -88 callsubr
            return
          </CharString>
          <CharString index="354">
            vhcurveto
            -10 29 -9 25 -32 68 -104 217 rcurveline
            return
          </CharString>
          <CharString index="355">
            rmoveto
            236 58 -236 hlineto
            endchar
          </CharString>
          <CharString index="356">
            hlineto
            26 callgsubr
            return
          </CharString>
          <CharString index="357">
            -102 -88 callsubr
            return
          </CharString>
          <CharString index="358">
            13 20 -7 28 hhcurveto
            return
          </CharString>
          <CharString index="359">
            262 callgsubr
            563 return
          </CharString>
          <CharString index="360">
            -110 -103 callgsubr
            return
          </CharString>
          <CharString index="361">
            -105 callsubr
            -77 111 return
          </CharString>
          <CharString index="362">
            -125 -88 callsubr
            return
          </CharString>
          <CharString index="363" raw="1">
            231df7e4 0b  
          </CharString>
          <CharString index="364">
            -115 -79 callgsubr
            135 return
          </CharString>
          <CharString index="365">
            -189 rmoveto
            10 12 2 20 28 vvcurveto
            103 vlineto
            13 -3 8 -5 5 vhcurveto
            return
          </CharString>
          <CharString index="366">
            -201 156 28 callgsubr
            -136 -59 68 -563 68 hlineto
            endchar
          </CharString>
          <CharString index="367">
            -23 -5 5 23 hvcurveto
            return
          </CharString>
          <CharString index="368">
            199 28 callgsubr
            return
          </CharString>
          <CharString index="369">
            -107 callsubr
            183 callgsubr
            -120 69 return
          </CharString>
          <CharString index="370">
            -103 callgsubr
            195 77 callgsubr
            return
          </CharString>
          <CharString index="371">
            85 callgsubr
            endchar
          </CharString>
          <CharString index="372">
            -59 71 249 callsubr
            return
          </CharString>
          <CharString index="373">
            56 -70 callgsubr
            return
          </CharString>
          <CharString index="374">
            90 -80 callsubr
            return
          </CharString>
          <CharString index="375">
            -232 261 callsubr
            return
          </CharString>
          <CharString index="376">
            563 rmoveto
            59 return
          </CharString>
          <CharString index="377">
            -212 hlineto
            -89 6 -46 0 vhcurveto
            0 -18 40 -28 46 vhcurveto
            return
          </CharString>
          <CharString index="378">
            hlineto
            -56 -23 -30 -48 hvcurveto
            -84 vlineto
            -28 2 -20 10 -12 vhcurveto
            return
          </CharString>
          <CharString index="379" raw="1">
            241df7a4 211d0b  
          </CharString>
          <CharString index="380">
            -106 callsubr
            42 59 -59 -88 callsubr
            return
          </CharString>
          <CharString index="381">
            -104 callsubr
            -26 callsubr
            17 return
          </CharString>
          <CharString index="382">
            -98 callsubr
            135 -104 callgsubr
            return
          </CharString>
          <CharString index="383">
            -563 69 -28 callsubr
          </CharString>
          <CharString index="384">
            -98 callgsubr
            -92 -88 callsubr
            return
          </CharString>
          <CharString index="385">
            -38 -18 -18 -38 hvcurveto
            -230 vlineto
            -38 18 -18 38 vhcurveto
            return
          </CharString>
          <CharString index="386">
            -104 callsubr
            -135 -98 callsubr
            return
          </CharString>
          <CharString index="387">
            -104 callsubr
            227 callsubr
            return
          </CharString>
          <CharString index="388">
            -99 callgsubr
            333 return
          </CharString>
          <CharString index="389">
            -103 callgsubr
            135 return
          </CharString>
          <CharString index="390">
            -104 callgsubr
            117 return
          </CharString>
          <CharString index="391" raw="1">
            fb4e290a 0b  
          </CharString>
          <CharString index="392" raw="1">
            fbbd290a 0b  
          </CharString>
          <CharString index="393">
            -59 259 -78 -105 return
          </CharString>
          <CharString index="394">
            181 187 return
          </CharString>
          <CharString index="395">
            -130 164 -68 -164 -130 -59 130 return
          </CharString>
          <CharString index="396">
            235 134 59 -134 210 164 59 return
          </CharString>
          <CharString index="397">
            261 callsubr
            -75 return
          </CharString>
          <CharString index="398">
            -59 243 -78 return
          </CharString>
          <CharString index="399">
            158 -32 callgsubr
            return
          </CharString>
          <CharString index="400">
            225 28 callgsubr
            -245 -59 245 hlineto
            return
          </CharString>
          <CharString index="401">
            291 callsubr
            -89 vlineto
            -104 callsubr
            return
          </CharString>
          <CharString index="402">
            -98 callgsubr
            -30 return
          </CharString>
          <CharString index="403">
            99 -104 callgsubr
            return
          </CharString>
          <CharString index="404">
            129 callgsubr
            85 59 return
          </CharString>
          <CharString index="405">
            -103 callgsubr
            18 return
          </CharString>
          <CharString index="406">
            -81 -88 callsubr
            return
          </CharString>
          <CharString index="407">
            rmoveto
            137 90 59 return
          </CharString>
          <CharString index="408">
            -106 callgsubr
            78 hlineto
            -338 return
          </CharString>
          <CharString index="409">
            hhcurveto
            89 -104 callgsubr
            186 return
          </CharString>
          <CharString index="410">
            143 59 rmoveto
            return
          </CharString>
        <CharString name=".notdef">
          338 180 hmoveto
          390 701 -390 hlineto
          54 -50 rmoveto
          282 -601 -282 hlineto
          endchar
        </CharString>
        <CharString name="A">
          -69 115 217 rmoveto
          -37 callgsubr
        </CharString>
        <CharString name="AE">
          116 160 217 rmoveto
          104 292 rlineto
          -292 vlineto
          69 -158 279 callgsubr
          -257 vlineto
          -226 -622 rlineto
          69 hlineto
          56 158 rlineto
          125 -158 240 59 hlineto
          endchar
        </CharString>
        <CharString name="Aacute">
          -69 295 780 34 callgsubr
          -82 -436 rmoveto
          -37 callgsubr
        </CharString>
        <CharString name="Abreve">
          -69 217 653 rmoveto
          -105 callgsubr
          48 -66 -40 -99 callgsubr
          -66 211 callsubr
          -66 -48 -98 callsubr
          -436 vmoveto
          -37 callgsubr
        </CharString>
        <CharString name="Acircumflex">
          -69 166 737 33 callsubr
          1 -436 rmoveto
          -37 callgsubr
        </CharString>
        <CharString name="Adieresis">
          -69 298 737 230 callsubr
          -176 84 230 callsubr
          -7 -436 rmoveto
          -37 callgsubr
        </CharString>
        <CharString name="Agrave">
          -69 191 653 111 callsubr
          -14 -436 rmoveto
          -37 callgsubr
        </CharString>
        <CharString name="Amacron">
          -69 284 711 191 callsubr
          -169 -436 rmoveto
          -37 callgsubr
        </CharString>
        <CharString name="Aogonek">
          -69 115 217 rmoveto
          51 357 58 -357 rlineto
          43 -375 rmoveto
          270 callgsubr
          1 hlineto
          -1 6 rlineto
          4 -1 vlineto
          -105 612 rlineto
          -109 hlineto
          -97 -622 rlineto
          69 hlineto
          23 158 rlineto
          126 hlineto
          26 -158 rlineto
          2 -25 74 callgsubr
          hlineto
          endchar
        </CharString>
        <CharString name="Aring">
          -69 122 729 -7 callgsubr
          -21 -436 rmoveto
          -37 callgsubr
        </CharString>
        <CharString name="Atilde">
          -69 103 664 rmoveto
          148 callsubr
          7 callsubr
          vlineto
          12 -436 rmoveto
          -37 callgsubr
        </CharString>
        <CharString name="B">
          -31 55 28 callgsubr
          -622 197 -70 callgsubr
          190 vlineto
          29 -14 13 -23 4 vhcurveto
          23 2 14 18 29 vvcurveto
          179 -98 callgsubr
          10 -532 -80 callsubr
          -107 229 107 -92 callsubr
          121 vmoveto
          -105 callsubr
          -107 216 107 -92 callsubr
          endchar
        </CharString>
        <CharString name="C">
          -67 305 438 rmoveto
          295 callgsubr
          -97 hlineto
          0 callsubr
          vlineto
          endchar
        </CharString>
        <CharString name="CR">
          -282 endchar
        </CharString>
        <CharString name="Cacute">
          -67 306 780 34 callgsubr
          -79 -31 rmoveto
          0 callsubr
          69 105 -61 callsubr
        </CharString>
        <CharString name="Ccaron">
          -67 222 653 -5 callgsubr
          -6 -31 rmoveto
          0 callsubr
          69 105 -61 callsubr
        </CharString>
        <CharString name="Ccedilla">
          -67 149 176 callsubr
          156 489 rmoveto
          295 callgsubr
          -97 hlineto
          0 callsubr
          vlineto
          endchar
        </CharString>
        <CharString name="D">
          292 callgsubr
          504 107 -92 callsubr
          -207 90 rmoveto
          -622 146 callsubr
        </CharString>
        <CharString name="Dcaron">
          -31 231 653 -5 callgsubr
          118 -563 -80 callsubr
          -107 504 107 -92 callsubr
          -207 90 rmoveto
          -622 146 callsubr
        </CharString>
        <CharString name="Dcroat">
          124 callsubr
        </CharString>
        <CharString name="E">
          -97 124 59 rmoveto
          235 42 callgsubr
          vlineto
          endchar
        </CharString>
        <CharString name="Eacute">
          -97 296 780 34 callgsubr
          -74 -359 rmoveto
          42 callgsubr
          -171 hlineto
          endchar
        </CharString>
        <CharString name="Ecaron">
          -97 213 653 -5 callgsubr
          -2 -359 rmoveto
          42 callgsubr
          -171 hlineto
          endchar
        </CharString>
        <CharString name="Ecircumflex">
          -97 172 737 33 callsubr
          4 -359 rmoveto
          42 callgsubr
          -171 hlineto
          endchar
        </CharString>
        <CharString name="Edieresis">
          -97 125 737 230 callsubr
          -1 -359 rmoveto
          42 callgsubr
          -171 hlineto
          89 678 236 callgsubr
        </CharString>
        <CharString name="Edotaccent">
          -97 226 739 rmoveto
          -92 -86 92 hlineto
          -102 -594 rmoveto
          235 42 callgsubr
          vlineto
          endchar
        </CharString>
        <CharString name="Egrave">
          -97 202 653 111 callsubr
          -16 -594 rmoveto
          235 42 callgsubr
          vlineto
          endchar
        </CharString>
        <CharString name="Emacron">
          -97 289 728 191 callsubr
          -165 -611 rmoveto
          235 42 callgsubr
          vlineto
          endchar
        </CharString>
        <CharString name="Eogonek">
          -97 235 -158 rmoveto
          72 callsubr
          137 -171 289 callsubr
          -233 -622 174 -25 74 callgsubr
          hlineto
          endchar
        </CharString>
        <CharString name="Eth">
          124 callsubr
        </CharString>
        <CharString name="Euro">
          -44 328 438 rmoveto
          295 callgsubr
          -97 -88 callsubr
          -145 -48 -58 48 -57 -48 -59 48 -146 105 callsubr
          105 -69 -94 -99 callgsubr
          -55 282 callsubr
          95 59 -95 57 95 58 -95 134 84 callsubr
          -94 vlineto
          endchar
        </CharString>
        <CharString name="F">
          -109 298 269 callsubr
          -243 -622 69 284 134 59 -134 220 vlineto
          endchar
        </CharString>
        <CharString name="G">
          -62 305 448 rmoveto
          95 -98 callgsubr
          -97 hlineto
          36 callgsubr
          vlineto
          endchar
        </CharString>
        <CharString name="Gbreve">
          -62 129 28 callgsubr
          36 callgsubr
          69 95 -98 callgsubr
          16 158 55 callsubr
        </CharString>
        <CharString name="H">
          -30 258 28 callgsubr
          -282 -134 282 -69 -622 69 281 134 -281 69 622 vlineto
          endchar
        </CharString>
        <CharString name="I">
          141 callgsubr
          endchar
        </CharString>
        <CharString name="Iacute">
          141 callgsubr
          -61 31 rmoveto
          166 callsubr
          endchar
        </CharString>
        <CharString name="Icircumflex">
          141 callgsubr
          -161 31 186 callgsubr
        </CharString>
        <CharString name="Idieresis">
          -214 -35 653 180 callgsubr
          -76 -115 288 callgsubr
          622 vlineto
          endchar
        </CharString>
        <CharString name="Idotaccent">
          141 callgsubr
          -81 47 rmoveto
          92 86 -92 hlineto
          endchar
        </CharString>
        <CharString name="Igrave">
          141 callgsubr
          -81 158 253 callgsubr
        </CharString>
        <CharString name="Imacron">
          141 callgsubr
          -153 48 248 callsubr
        </CharString>
        <CharString name="Iogonek">
          -214 73 -158 rmoveto
          72 callsubr
          700 -68 -622 2 -25 74 callgsubr
          hlineto
          endchar
        </CharString>
        <CharString name="J">
          -111 15 192 rmoveto
          -113 -60 callsubr
          543 -69 -532 226 callsubr
          102 vlineto
          endchar
        </CharString>
        <CharString name="K">
          -67 55 hmoveto
          68 622 -68 hlineto
          280 hmoveto
          244 callsubr
        </CharString>
        <CharString name="L">
          -141 123 59 201 callgsubr
        </CharString>
        <CharString name="Lacute">
          -141 217 780 34 callgsubr
          4 -594 201 callgsubr
        </CharString>
        <CharString name="Lcaron">
          -141 215 786 rmoveto
          -76 hlineto
          -53 -84 -52 84 rlineto
          -76 hlineto
          85 -127 rlineto
          87 hlineto
          -7 -600 201 callgsubr
        </CharString>
        <CharString name="Lslash">
          -136 123 59 rmoveto
          229 vlineto
          97 45 rlineto
          59 vlineto
          -97 -45 rlineto
          275 -68 -306 vlineto
          -73 -34 rlineto
          -59 vlineto
          73 34 rlineto
          -257 211 59 vlineto
          endchar
        </CharString>
        <CharString name="M">
          63 274 135 rmoveto
          87 336 rlineto
          -471 59 622 -75 vlineto
          -108 -400 -107 400 rlineto
          -75 -622 59 471 hlineto
          87 -336 rlineto
          endchar
        </CharString>
        <CharString name="N">
          118 callgsubr
          endchar
        </CharString>
        <CharString name="NULL">
          -412 endchar
        </CharString>
        <CharString name="Nacute">
          -35 161 653 rmoveto
          166 callsubr
          20 197 callsubr
        </CharString>
        <CharString name="Ncaron">
          -35 149 653 rmoveto
          87 hlineto
          85 127 rlineto
          -76 hlineto
          -53 -84 -52 84 rlineto
          -76 hlineto
          195 197 callsubr
        </CharString>
        <CharString name="Ntilde">
          118 callgsubr
          -85 31 rmoveto
          7 callsubr
          11 vlineto
          148 callsubr
          endchar
        </CharString>
        <CharString name="O">
          -52 242 90 -54 callgsubr
          endchar
        </CharString>
        <CharString name="OE">
          105 242 267 callsubr
          -62 -103 callgsubr
          442 13 callsubr
          79 -473 279 callgsubr
          -223 -19 vlineto
          13 -12 -19 6 -26 hhcurveto
          -76 115 callgsubr
          77 hlineto
          26 18 6 13 12 hvcurveto
          -19 230 59 vlineto
          endchar
        </CharString>
        <CharString name="Oacute">
          -52 300 780 34 callgsubr
          40 -59 callgsubr
          endchar
        </CharString>
        <CharString name="Ocircumflex">
          -52 179 737 33 callsubr
          115 -59 callgsubr
          endchar
        </CharString>
        <CharString name="Odieresis">
          -52 136 737 230 callsubr
          106 -59 callgsubr
          -7 115 236 callgsubr
        </CharString>
        <CharString name="Ograve">
          -52 200 653 111 callsubr
          104 -59 callgsubr
          endchar
        </CharString>
        <CharString name="Ohungarumlaut">
          -52 256 653 103 callgsubr
          86 -59 callgsubr
          endchar
        </CharString>
        <CharString name="Omacron">
          -52 298 711 191 callsubr
          -56 -59 callgsubr
          endchar
        </CharString>
        <CharString name="Oslash">
          -42 248 87 rmoveto
          -26 -5 -5 -27 vhcurveto
          -63 hlineto
          -12 -8 1 4 -4 hvcurveto
          119 372 rlineto
          -126 102 212 callsubr
          63 hlineto
          13 7 -1 -4 5 hvcurveto
          -119 -372 rlineto
          193 453 rmoveto
          -48 hlineto
          -7 -22 rlineto
          1 -7 -8 1 -9 hhcurveto
          250 callsubr
          -464 vlineto
          -23 5 -18 10 -13 vhcurveto
          -15 -45 rlineto
          48 hlineto
          7 22 rlineto
          -1 7 8 -1 9 hhcurveto
          102 -104 callgsubr
          464 vlineto
          23 -5 18 -10 13 vhcurveto
          endchar
        </CharString>
        <CharString name="Otilde">
          -52 116 664 rmoveto
          148 callsubr
          7 callsubr
          vlineto
          126 -59 callgsubr
          endchar
        </CharString>
        <CharString name="P">
          -67 247 340 -80 callsubr
          -93 254 93 -92 callsubr
          -192 90 288 callgsubr
          250 113 -70 callgsubr
          214 -61 callsubr
        </CharString>
        <CharString name="Q">
          -52 118 532 rmoveto
          37 callsubr
          -442 -99 callgsubr
          -62 -103 callgsubr
          195 -187 rmoveto
          -65 98 rlineto
          42 5 20 26 47 vvcurveto
          464 vlineto
          53 -26 26 -53 vhcurveto
          -102 115 callgsubr
          53 hlineto
          63 -97 rlineto
          endchar
        </CharString>
        <CharString name="R">
          -48 123 563 45 callgsubr
        </CharString>
        <CharString name="Racute">
          -48 307 780 34 callgsubr
          -86 -90 45 callgsubr
        </CharString>
        <CharString name="Rcaron">
          -48 224 653 -5 callgsubr
          -14 -90 45 callgsubr
        </CharString>
        <CharString name="S">
          -85 218 90 60 callsubr
        </CharString>
        <CharString name="Sacute">
          -85 128 653 rmoveto
          166 callsubr
          12 56 callsubr
        </CharString>
        <CharString name="Scaron">
          -85 121 653 rmoveto
          87 hlineto
          85 127 rlineto
          -76 hlineto
          -53 -84 -52 84 rlineto
          -76 hlineto
          182 56 callsubr
        </CharString>
        <CharString name="T">
          -134 273 622 178 callsubr
        </CharString>
        <CharString name="Tcaron">
          -134 183 653 -5 callgsubr
          177 -31 178 callsubr
        </CharString>
        <CharString name="Thorn">
          -67 247 215 -80 callsubr
          -93 254 93 -92 callsubr
          -124 90 rmoveto
          125 -68 -622 68 125 113 -70 callgsubr
          214 -61 callsubr
        </CharString>
        <CharString name="U">
          -48 244 28 callgsubr
          -532 vlineto
          -24 callgsubr
          vlineto
          endchar
        </CharString>
        <CharString name="Uacute">
          -48 310 780 34 callgsubr
          32 -31 rmoveto
          -532 vlineto
          -24 callgsubr
          vlineto
          endchar
        </CharString>
        <CharString name="Ucircumflex">
          -48 181 737 33 callsubr
          115 -31 rmoveto
          -532 vlineto
          -24 callgsubr
          vlineto
          endchar
        </CharString>
        <CharString name="Udieresis">
          -48 138 737 230 callsubr
          106 -563 rmoveto
          -24 callgsubr
          -68 vlineto
          -18 115 236 callgsubr
        </CharString>
        <CharString name="Ugrave">
          -48 213 653 111 callsubr
          93 -31 rmoveto
          -532 vlineto
          -24 callgsubr
          vlineto
          endchar
        </CharString>
        <CharString name="Uhungarumlaut">
          -48 256 653 103 callgsubr
          88 -563 rmoveto
          -24 callgsubr
          -68 vlineto
          endchar
        </CharString>
        <CharString name="Umacron">
          -48 301 711 191 callsubr
          -57 -31 rmoveto
          -532 vlineto
          -24 callgsubr
          vlineto
          endchar
        </CharString>
        <CharString name="Uogonek">
          -48 244 28 callgsubr
          -532 -99 callgsubr
          -62 -103 callgsubr
          532 -68 -543 -98 callsubr
          25 -25 74 callgsubr
          -78 hlineto
          270 callgsubr
          11 -104 callgsubr
          543 vlineto
          endchar
        </CharString>
        <CharString name="Uring">
          -48 137 729 -7 callgsubr
          93 -31 rmoveto
          -532 vlineto
          -24 callgsubr
          vlineto
          endchar
        </CharString>
        <CharString name="V">
          -93 245 28 callgsubr
          -86 -574 -85 574 rlineto
          -69 hlineto
          100 -622 rlineto
          109 hlineto
          100 622 rlineto
          endchar
        </CharString>
        <CharString name="W">
          137 470 28 callgsubr
          -76 -574 -79 574 rlineto
          -82 hlineto
          -79 -574 -75 574 rlineto
          -69 hlineto
          91 -622 rlineto
          104 hlineto
          69 493 70 -493 rlineto
          104 hlineto
          91 622 rlineto
          endchar
        </CharString>
        <CharString name="X">
          -78 203 318 rmoveto
          116 304 rlineto
          -74 hlineto
          -78 -242 -78 242 rlineto
          -74 hlineto
          116 -304 -126 -318 rlineto
          74 hlineto
          88 253 88 -253 rlineto
          74 hlineto
          endchar
        </CharString>
        <CharString name="Y">
          -93 245 622 200 callsubr
        </CharString>
        <CharString name="Yacute">
          -93 291 780 34 callgsubr
          52 198 callgsubr
        </CharString>
        <CharString name="Ydieresis">
          -93 295 737 230 callsubr
          -176 84 230 callsubr
          126 198 callgsubr
        </CharString>
        <CharString name="Z">
          -139 268 623 rmoveto
          -253 -59 125 callsubr
          endchar
        </CharString>
        <CharString name="Zacute">
          -139 276 780 34 callgsubr
          -163 -89 rmoveto
          125 callsubr
          59 -253 vlineto
          endchar
        </CharString>
        <CharString name="Zcaron">
          -139 182 653 -5 callgsubr
          173 -30 rmoveto
          -253 -59 125 callsubr
          endchar
        </CharString>
        <CharString name="Zdotaccent">
          -139 190 739 rmoveto
          -92 -86 92 hlineto
          78 -30 rmoveto
          -253 -59 125 callsubr
          endchar
        </CharString>
        <CharString name="a">
          -84 140 59 -61 callgsubr
          -33 69 485 vlineto
          endchar
        </CharString>
        <CharString name="aacute">
          -84 298 643 34 callgsubr
          -60 -457 -57 callsubr
          34 393 rmoveto
          -56 callgsubr
          -33 69 485 -69 vlineto
          endchar
        </CharString>
        <CharString name="abreve">
          -84 140 59 -57 callsubr
          34 393 rmoveto
          -56 callgsubr
          -33 69 485 -69 vlineto
          12 158 55 callsubr
        </CharString>
        <CharString name="acircumflex">
          -84 166 600 33 callsubr
          26 -457 -57 callsubr
          34 393 rmoveto
          -56 callgsubr
          -33 69 485 -69 vlineto
          endchar
        </CharString>
        <CharString name="acute">
          -12 118 516 rmoveto
          166 callsubr
          endchar
        </CharString>
        <CharString name="adieresis">
          -84 116 625 230 callsubr
          24 -482 -57 callsubr
          34 393 rmoveto
          -56 callgsubr
          -33 69 485 -69 vlineto
          -10 140 236 callgsubr
        </CharString>
        <CharString name="ae">
          97 145 59 -58 callsubr
          76 vlineto
          105 42 rlineto
          -119 vlineto
          -23 -2 -10 -7 -22 hhcurveto
          184 367 rmoveto
          -103 callsubr
          -117 -112 117 -106 callgsubr
          -31 -207 rmoveto
          287 callsubr
          hlineto
          -96 callsubr
          -83 hlineto
          246 callsubr
          -94 69 83 73 callgsubr
          22 10 -8 -22 2 hvcurveto
          -125 vlineto
          -174 -71 rlineto
          -121 152 callgsubr
          endchar
        </CharString>
        <CharString name="agrave">
          -84 221 516 111 callsubr
          -19 -457 -61 callgsubr
          -33 69 485 vlineto
          endchar
        </CharString>
        <CharString name="amacron">
          -84 278 608 191 callsubr
          -138 -491 -61 callgsubr
          -33 69 485 vlineto
          endchar
        </CharString>
        <CharString name="ampersand">
          6 139 59 -58 callsubr
          87 vlineto
          35 9 11 22 15 vhcurveto
          27 19 157 -196 rlineto
          -1 -5 -6 -1 -9 hhcurveto
          -175 473 212 callsubr
          52 -92 callsubr
          -88 vlineto
          -44 -18 -20 -39 -27 vhcurveto
          -9 -7 rlineto
          -23 27 -25 31 30 vvcurveto
          347 -469 rmoveto
          -85 108 rlineto
          6 vlineto
          145 -56 -79 vlineto
          -117 149 24 17 rlineto
          45 29 24 34 70 vvcurveto
          99 277 callsubr
          -103 vlineto
          -48 33 -42 33 -43 vhcurveto
          -34 -26 rlineto
          -39 -27 -13 -21 -38 vvcurveto
          -116 -98 callsubr
          192 hlineto
          21 17 4 9 13 hvcurveto
          38 -48 rlineto
          endchar
        </CharString>
        <CharString name="aogonek">
          -84 140 59 -57 callsubr
          43 -217 259 callgsubr
          -33 hlineto
          -56 callgsubr
          -33 3 -25 -8 vlineto
          92 callgsubr
          hlineto
          endchar
        </CharString>
        <CharString name="apostrophemod">
          -270 30 622 190 callsubr
        </CharString>
        <CharString name="approxequal">
          60 317 386 rmoveto
          73 callsubr
          -170 vmoveto
          73 callsubr
          endchar
        </CharString>
        <CharString name="aring">
          -84 124 603 -7 callgsubr
          2 -468 -61 callgsubr
          -33 69 485 vlineto
          endchar
        </CharString>
        <CharString name="asciicircum">
          31 180 671 rmoveto
          -135 -344 rlineto
          72 hlineto
          104 277 105 -277 rlineto
          72 hlineto
          -135 344 rlineto
          endchar
        </CharString>
        <CharString name="asciitilde">
          60 318 216 rmoveto
          73 callsubr
          endchar
        </CharString>
        <CharString name="asterisk">
          -110 287 500 rmoveto
          -20 59 -38 -12 -22 -7 -17 -8 -13 -7 rlinecurve
          3 14 2 19 23 vvcurveto
          41 -62 -41 vlineto
          -23 2 -19 3 -15 vhcurveto
          -13 7 -17 9 -22 7 -39 13 rcurveline
          -19 -59 39 -13 22 -7 19 -4 14 -2 rlinecurve
          -11 -10 -13 -14 -13 -18 -25 -33 rcurveline
          51 -37 24 33 14 19 9 17 6 13 rlinecurve
          6 -13 10 -17 13 -18 24 -34 rcurveline
          50 37 -24 33 -13 19 -13 14 -11 10 rlinecurve
          14 2 19 3 21 7 rrcurveto
          endchar
        </CharString>
        <CharString name="at">
          239 229 348 rmoveto
          -188 -98 callsubr
          30 hlineto
          31 27 13 36 4 hvcurveto
          -49 126 -70 callgsubr
          325 -98 callgsubr
          -362 -88 callsubr
          -467 -98 callsubr
          298 61 -277 -103 callgsubr
          440 vlineto
          26 5 6 26 vhcurveto
          321 hlineto
          26 5 -6 -26 hvcurveto
          -300 -99 callgsubr
          -45 287 -68 -34 hlineto
          24 -8 -21 10 -26 hhcurveto
          -30 -88 callsubr
          69 -11 212 callsubr
          30 hlineto
          24 10 -9 -27 hvcurveto
          -156 195 callsubr
          -30 -103 callgsubr
          endchar
        </CharString>
        <CharString name="atilde">
          -84 140 59 -57 callsubr
          34 393 rmoveto
          -56 callgsubr
          -33 69 485 -69 vlineto
          8 139 rmoveto
          -10 vlineto
          -21 -5 -4 -14 vhcurveto
          -24 -25 35 -42 hhcurveto
          -6 hlineto
          -55 -17 -29 -47 hvcurveto
          -14 62 11 vlineto
          148 callsubr
          5 hlineto
          56 15 30 46 hvcurveto
          14 vlineto
          endchar
        </CharString>
        <CharString name="b">
          -84 219 267 callsubr
          -40 hlineto
          -24 -10 9 27 hvcurveto
          296 vlineto
          27 10 9 24 14 callgsubr
          -50 90 rmoveto
          196 callgsubr
          216 -69 -669 69 33 vlineto
          -24 8 20 -9 27 hhcurveto
          40 -104 callgsubr
          328 -61 callsubr
        </CharString>
        <CharString name="backslash">
          -27 44 699 rmoveto
          264 -835 rlineto
          69 hlineto
          -264 835 rlineto
          endchar
        </CharString>
        <CharString name="bar">
          55 719 rmoveto
          -817 69 817 vlineto
          endchar
        </CharString>
        <CharString name="braceleft">
          -141 180 689 rmoveto
          24 8 9 26 vhcurveto
          50 59 -83 hlineto
          -56 -13 -31 -47 hvcurveto
          -249 vlineto
          -81 -27 -36 -61 vhcurveto
          -19 -58 19 hlineto
          61 27 -36 -80 hvcurveto
          -251 vlineto
          -48 13 -30 56 vhcurveto
          83 59 -50 hlineto
          -26 -8 9 24 hvcurveto
          263 vlineto
          68 -24 44 -51 7 vhcurveto
          51 6 24 44 70 vvcurveto
          endchar
        </CharString>
        <CharString name="braceright">
          -141 90 428 rmoveto
          -70 24 -44 51 -6 vhcurveto
          -51 -7 -24 -44 -68 vvcurveto
          -263 vlineto
          -24 -8 -9 -26 vhcurveto
          -50 -59 83 hlineto
          56 13 30 48 hvcurveto
          251 vlineto
          80 27 36 61 vhcurveto
          19 58 -19 hlineto
          -61 -27 36 81 hvcurveto
          249 vlineto
          47 -13 31 -56 vhcurveto
          -83 -59 50 hlineto
          26 8 -9 -24 hvcurveto
          endchar
        </CharString>
        <CharString name="bracketleft">
          -103 233 722 rmoveto
          59 -170 -948 170 59 -101 830 vlineto
          endchar
        </CharString>
        <CharString name="bracketright">
          -103 223 781 rmoveto
          -170 -59 101 -830 -101 -59 170 hlineto
          endchar
        </CharString>
        <CharString name="breve">
          -12 264 643 55 callsubr
        </CharString>
        <CharString name="brokenbar">
          55 247 rmoveto
          -345 69 345 vlineto
          127 vmoveto
          345 -69 -345 vlineto
          endchar
        </CharString>
        <CharString name="bullet">
          -16 71 321 rmoveto
          -70 57 -57 70 70 57 57 70 70 -57 57 -70 -70 -57 -57 -70 vhcurveto
          endchar
        </CharString>
        <CharString name="c">
          -87 290 341 101 callgsubr
        </CharString>
        <CharString name="cacute">
          -87 291 643 34 callgsubr
          -74 102 callgsubr
        </CharString>
        <CharString name="caron">
          -12 156 516 rmoveto
          87 hlineto
          85 127 rlineto
          -76 hlineto
          -53 -84 -52 84 rlineto
          -76 hlineto
          endchar
        </CharString>
        <CharString name="ccaron">
          -87 210 516 -5 callgsubr
          -4 102 callgsubr
        </CharString>
        <CharString name="ccedilla">
          -87 136 176 callsubr
          154 392 101 callgsubr
        </CharString>
        <CharString name="cedilla">
          -12 208 176 callsubr
          endchar
        </CharString>
        <CharString name="cent">
          -87 290 341 rmoveto
          65 -98 callgsubr
          -10 76 -65 -76 -17 hlineto
          274 callsubr
          -75 65 75 10 -104 callgsubr
          65 -69 -54 -99 callgsubr
          -50 -73 callsubr
          50 hlineto
          26 5 -5 -26 hvcurveto
          -54 vlineto
          endchar
        </CharString>
        <CharString name="circumflex">
          -12 71 516 186 callgsubr
        </CharString>
        <CharString name="colon">
          -270 30 hmoveto
          251 callgsubr
          261 vmoveto
          251 callgsubr
          endchar
        </CharString>
        <CharString name="comma">
          -270 30 112 190 callsubr
        </CharString>
        <CharString name="copyright">
          270 651 342 rmoveto
          185 -63 95 -143 vhcurveto
          -190 hlineto
          -143 -63 -95 -185 hvcurveto
          -71 vlineto
          -185 63 -86 143 vhcurveto
          190 hlineto
          143 63 86 185 hvcurveto
          -394 -211 rmoveto
          -111 -30 92 118 hvcurveto
          73 vlineto
          118 30 103 111 vhcurveto
          186 hlineto
          111 30 -103 -118 hvcurveto
          -73 vlineto
          -118 -30 -92 -111 vhcurveto
          -37 180 -80 callsubr
          -50 -103 callgsubr
          155 37 callgsubr
          -24 69 35 277 callsubr
          -177 164 callsubr
          -104 callgsubr
          35 -69 vlineto
          endchar
        </CharString>
        <CharString name="currency">
          42 207 170 -58 callsubr
          195 13 callsubr
          -195 -99 callgsubr
          99 237 rmoveto
          15 -2 13 -4 10 vhcurveto
          41 41 -46 46 -48 -47 rlineto
          1 -6 -7 0 -7 hhcurveto
          -102 hlineto
          -10 -9 -1 -2 -8 hvcurveto
          -49 49 -46 -46 47 -47 rlineto
          -3 -9 -1 -11 -12 vvcurveto
          -217 vlineto
          -12 1 -10 3 -9 vhcurveto
          -47 -46 46 -46 48 47 rlineto
          -2 8 9 -1 11 hhcurveto
          102 hlineto
          8 7 1 1 7 hvcurveto
          46 -46 46 46 -41 40 rlineto
          4 10 2 13 14 vvcurveto
          endchar
        </CharString>
        <CharString name="d">
          -84 179 callgsubr
          610 rmoveto
          -216 vlineto
          179 callsubr
          vlineto
          endchar
        </CharString>
        <CharString name="dagger">
          -74 333 458 rmoveto
          288 callsubr
          -509 68 509 130 hlineto
          endchar
        </CharString>
        <CharString name="daggerdbl">
          -54 343 399 rmoveto
          59 288 callsubr
          -333 -130 -59 130 -164 68 164 130 59 -130 333 vlineto
          endchar
        </CharString>
        <CharString name="danda">
          -88 303 callgsubr
          endchar
        </CharString>
        <CharString name="dcaron">
          -58 179 callgsubr
          394 rmoveto
          179 callsubr
          -69 vlineto
          114 hmoveto
          -160 27 vlineto
          35 121 rlineto
          39 vlineto
          endchar
        </CharString>
        <CharString name="dcroat">
          -79 145 59 -57 callsubr
          148 544 rmoveto
          -45 66 -69 -66 -85 -59 85 -92 hlineto
          -56 callgsubr
          -33 69 544 45 vlineto
          endchar
        </CharString>
        <CharString name="degree">
          -56 292 545 rmoveto
          52 -25 25 -52 vhcurveto
          -80 hlineto
          -52 -25 -25 -52 hvcurveto
          -115 vlineto
          -52 25 -25 52 vhcurveto
          80 hlineto
          52 25 25 52 hvcurveto
          -64 9 rmoveto
          -25 -102 callsubr
          -44 hlineto
          -26 -5 5 25 hvcurveto
          97 vlineto
          25 -102 callgsubr
          44 hlineto
          26 5 -5 -25 hvcurveto
          endchar
        </CharString>
        <CharString name="dieresis">
          -12 68 541 180 callgsubr
          endchar
        </CharString>
        <CharString name="divide">
          -32 25 281 296 callgsubr
          130 150 rmoveto
          -80 70 80 vlineto
          -70 -280 rmoveto
          -80 70 80 vlineto
          endchar
        </CharString>
        <CharString name="dollar">
          -85 140 350 rmoveto
          39 callgsubr
          -11 75 -65 -75 -12 59 callsubr
          -170 -99 callgsubr
          -45 86 callgsubr
          113 callgsubr
          10 -75 65 75 12 144 callgsubr
          endchar
        </CharString>
        <CharString name="dotaccent">
          -12 154 536 rmoveto
          92 86 -92 hlineto
          endchar
        </CharString>
        <CharString name="dotlessi">
          134 callgsubr
          endchar
        </CharString>
        <CharString name="dottedcircle">
          248 139 517 rmoveto
          -26 18 -19 26 26 18 19 26 25 -18 19 -26 -26 -18 -19 -25 vhcurveto
          -82 -110 rmoveto
          -25 20 -19 26 24 20 19 25 25 -20 19 -24 -26 -20 -19 -25 vhcurveto
          -13 -126 rmoveto
          -25 19 -18 25 26 18 18 302 callgsubr
          52 -116 rmoveto
          -26 18 -18 26 25 19 18 26 25 -19 19 -25 -26 -18 -19 -25 vhcurveto
          101 -75 rmoveto
          -26 19 -20 26 25 19 20 26 24 -19 20 -25 -26 -19 -20 -24 vhcurveto
          127 -16 rmoveto
          -26 18 -18 26 26 19 18 26 26 -19 18 -26 -26 -18 -18 -26 vhcurveto
          121 53 rmoveto
          -26 19 -18 25 25 20 18 26 25 -20 19 -25 -25 -19 -19 -25 vhcurveto
          73 98 rmoveto
          -25 19 -19 26 24 19 19 25 26 -19 19 -24 -26 -19 -19 -26 vhcurveto
          10 134 rmoveto
          -26 18 -18 26 25 19 18 26 26 -19 18 -25 -26 -18 -18 -26 vhcurveto
          -50 118 rmoveto
          -25 19 -19 25 26 18 19 302 callgsubr
          -95 68 rmoveto
          -24 19 -20 26 25 18 20 24 26 -18 19 -25 -26 -19 -19 -26 vhcurveto
          -126 15 rmoveto
          -26 18 -18 26 26 18 18 26 26 -18 18 -26 -26 -18 -18 -26 vhcurveto
          endchar
        </CharString>
        <CharString name="doubledanda">
          77 303 callgsubr
          165 684 rmoveto
          -64 -684 64 hlineto
          endchar
        </CharString>
        <CharString name="dvA">
          88 520 28 callgsubr
          -143 -70 callsubr
          75 vlineto
          endchar
        </CharString>
        <CharString name="dvAA">
          268 699 28 callgsubr
          -322 -70 callsubr
          111 -563 138 callgsubr
        </CharString>
        <CharString name="dvAI">
          -35 397 28 callgsubr
          -75 148 callgsubr
          -269 27 callgsubr
        </CharString>
        <CharString name="dvAU">
          268 699 28 callgsubr
          -78 hlineto
          -45 191 223 callgsubr
          -91 hlineto
          140 -132 32 -30 23 -19 13 -10 rlinecurve
          -166 -70 callsubr
          111 -563 138 callgsubr
        </CharString>
        <CharString name="dvAbbreviationsign">
          -59 60 305 rmoveto
          -80 46 -46 70 70 47 46 80 80 -47 46 -70 -70 -46 -46 -80 vhcurveto
          63 hmoveto
          45 18 24 35 35 19 -24 -45 -45 -19 -24 -35 -35 -18 24 45 vhcurveto
          endchar
        </CharString>
        <CharString name="dvAcandra">
          13 520 28 callgsubr
          -143 -70 callsubr
          75 vlineto
          -40 228 98 callsubr
        </CharString>
        <CharString name="dvAnusvara">
          -412 -130 813 202 callsubr
        </CharString>
        <CharString name="dvAnusvara.amI">
          -412 20 743 202 callsubr
        </CharString>
        <CharString name="dvAvagraha">
          -69 280 269 callsubr
          -139 vlineto
          -104 callsubr
          -155 142 callsubr
          26 5 -5 -26 hvcurveto
          -188 -2 callsubr
          75 -69 -86 -98 callsubr
          85 -104 callgsubr
          210 -98 callgsubr
          -52 218 callgsubr
          endchar
        </CharString>
        <CharString name="dvB">
          -207 296 28 callgsubr
          -316 -59 316 hlineto
          -167 -485 rmoveto
          167 46 hlineto
          0 -50 115 -9 callgsubr
          -51 callsubr
          -10 90 237 callsubr
          endchar
        </CharString>
        <CharString name="dvBA">
          -28 150 137 193 callsubr
          -424 -59 280 -238 hlineto
          139 callsubr
        </CharString>
        <CharString name="dvBH">
          -57 132 callgsubr
          222 59 rmoveto
          -153 142 hlineto
          -50 callgsubr
          153 vlineto
          endchar
        </CharString>
        <CharString name="dvBHA">
          117 132 callgsubr
          326 280 rmoveto
          -144 -221 -113 142 hlineto
          -50 callgsubr
          113 -342 69 -28 callsubr
        </CharString>
        <CharString name="dvBH_LA">
          431 132 callgsubr
          637 280 rmoveto
          -523 -59 386 -78 70 callgsubr
          -5 -105 116 callgsubr
          105 -263 -62 callgsubr
          -426 69 563 68 hlineto
          endchar
        </CharString>
        <CharString name="dvBH_NA">
          409 540 168 -91 callgsubr
          -317 -258 -48 callgsubr
          618 280 rmoveto
          -461 -59 317 163 callsubr
          -5 -88 116 callgsubr
          88 -185 35 callgsubr
        </CharString>
        <CharString name="dvBH_R">
          -6 228 -50 rmoveto
          198 220 rlineto
          92 vlineto
          -283 -312 rlineto
          80 268 234 callgsubr
          69 59 rmoveto
          142 vlineto
          -74 callsubr
          -131 -99 vlineto
          -53 -26 -26 -53 hvcurveto
          257 callsubr
          134 59 vlineto
          endchar
        </CharString>
        <CharString name="dvBH_RA">
          117 223 218 234 callgsubr
          326 280 rmoveto
          -144 -221 -113 89 callgsubr
          197 rlineto
          -147 69 1 callsubr
          endchar
        </CharString>
        <CharString name="dvBH_R_YA">
          386 674 169 callsubr
          -451 -345 234 callgsubr
          595 280 rmoveto
          -483 -59 135 hlineto
          -25 callgsubr
          -99 -99 callgsubr
          -193 89 callgsubr
          196 rlineto
          -46 4 26 -22 49 hhcurveto
          -93 callgsubr
        </CharString>
        <CharString name="dvBH_VA">
          283 132 callgsubr
          492 280 rmoveto
          -378 -59 234 -392 hlineto
          -26 -8 -8 -97 callgsubr
          -5 -105 116 callgsubr
          105 -185 79 callsubr
        </CharString>
        <CharString name="dvBH_YA">
          361 649 171 -8 callsubr
        </CharString>
        <CharString name="dvB_BA">
          187 365 137 -77 callsubr
          -286 hmoveto
          -107 callgsubr
          26 callsubr
          0 15 -39 36 -68 vhcurveto
          78 -147 rlineto
          -3 -5 -7 -1 -10 hhcurveto
          388 485 rmoveto
          -639 -59 495 -238 hlineto
          -89 6 -46 -29 callsubr
          -135 -10 callgsubr
          16 5 14 8 88 callgsubr
          99 -91 callsubr
        </CharString>
        <CharString name="dvB_BHA">
          337 293 callsubr
          218 -395 rmoveto
          -26 -5 -5 -26 vhcurveto
          -47 hlineto
          -26 -5 5 26 hvcurveto
          143 28 callsubr
          102 hlineto
          25 15 5 14 9 hvcurveto
          -13 14 19 -6 26 hhcurveto
          89 -104 callgsubr
          185 113 -342 69 -28 callsubr
        </CharString>
        <CharString name="dvB_BH_RA">
          332 293 callsubr
          213 -345 rmoveto
          -26 -5 -5 -26 vhcurveto
          -47 hlineto
          -26 -5 5 26 hvcurveto
          93 28 callsubr
          105 hlineto
          45 23 19 34 10 hvcurveto
          -2 8 9 -1 10 hhcurveto
          178 callgsubr
        </CharString>
        <CharString name="dvB_DA">
          132 142 137 -77 callsubr
          271 289 rmoveto
          137 75 59 -584 -59 440 -78 -89 vlineto
          -104 callsubr
          -81 vlineto
          -14 callsubr
          102 hlineto
          25 16 5 14 8 hvcurveto
          -13 13 20 -6 26 hhcurveto
          -22 callgsubr
        </CharString>
        <CharString name="dvB_DHA">
          225 293 callsubr
          -70 -426 -77 callsubr
          426 485 rmoveto
          -144 -451 hlineto
          29 callsubr
          -158 -84 callsubr
          -24 -10 callgsubr
          16 5 14 8 hvcurveto
          -13 13 20 -6 26 hhcurveto
          137 -91 callsubr
        </CharString>
        <CharString name="dvB_DH_VA">
          399 293 callsubr
          -70 -426 -77 callsubr
          600 485 rmoveto
          -335 -59 191 -392 hlineto
          -26 -8 -8 -97 callgsubr
          -235 vlineto
          29 callsubr
          -158 -84 callsubr
          -24 -10 callgsubr
          16 5 14 8 hvcurveto
          -13 13 20 -6 26 hhcurveto
          140 hlineto
          25 16 5 14 8 88 callgsubr
          63 -91 callsubr
        </CharString>
        <CharString name="dvB_JA">
          280 142 137 -77 callsubr
          499 485 rmoveto
          -737 -59 593 -78 -156 -317 82 callgsubr
          269 87 -426 69 -28 callsubr
        </CharString>
        <CharString name="dvB_JHA">
          324 632 91 callgsubr
          -490 -426 -77 callsubr
          558 485 rmoveto
          -796 -59 467 -78 -98 -88 callsubr
          -6 callsubr
          103 -69 -75 hlineto
          -132 261 rlineto
          72 59 -91 -88 callsubr
          -51 callsubr
          106 hlineto
          20 15 5 9 10 hvcurveto
          -92 69 78 104 -70 callgsubr
          88 177 callgsubr
          109 -265 236 callsubr
        </CharString>
        <CharString name="dvB_J_YA">
          542 842 -69 callsubr
          177 32 -70 callgsubr
          112 -22 callsubr
          -700 -426 -77 callsubr
          768 485 rmoveto
          -1006 -59 658 hlineto
          -25 callgsubr
          -96 -99 callgsubr
          -236 -236 82 callgsubr
          188 87 -188 -63 callsubr
        </CharString>
        <CharString name="dvB_JxA">
          298 351 -86 2 callgsubr
          -196 137 -77 callsubr
          499 485 rmoveto
          -750 -59 606 64 callsubr
          -69 -214 -10 callgsubr
          15 5 14 9 hvcurveto
          -13 13 20 -6 26 hhcurveto
          76 hlineto
          54 25 -83 callsubr
          269 87 -426 69 -28 callsubr
        </CharString>
        <CharString name="dvB_LA">
          296 155 137 -77 callsubr
          497 485 rmoveto
          -748 -59 611 -78 70 callgsubr
          -81 vlineto
          -14 callsubr
          99 -94 callgsubr
          -8 -62 callgsubr
          -426 69 563 68 hlineto
          endchar
        </CharString>
        <CharString name="dvB_L_YA">
          572 860 -69 callsubr
          188 32 -70 callgsubr
          101 -22 callsubr
          -705 -426 -77 callsubr
          773 485 rmoveto
          -1024 -59 676 hlineto
          -25 callgsubr
          -85 224 callgsubr
          -72 hlineto
          -53 -26 -26 -53 hvcurveto
          -11 vlineto
          -14 callsubr
          99 -94 callgsubr
          -8 104 callsubr
          232 72 callgsubr
          -176 69 176 -106 callgsubr
          63 -199 hlineto
          -92 callgsubr
        </CharString>
        <CharString name="dvB_NA">
          294 425 168 -91 callgsubr
          -270 -289 -77 callsubr
          495 485 rmoveto
          -746 -59 602 163 callsubr
          -135 -10 callgsubr
          16 5 14 8 hvcurveto
          -13 14 19 -6 26 172 callsubr
        </CharString>
        <CharString name="dvB_R">
          -134 -20 28 callgsubr
          -59 316 59 vlineto
          -177 -454 237 callsubr
          -69 238 rmoveto
          -51 callsubr
          92 hlineto
          -107 -128 rlineto
          81 hlineto
          101 128 rlineto
          46 vlineto
          0 -50 115 -9 callgsubr
          endchar
        </CharString>
        <CharString name="dvB_RA">
          -28 150 167 215 callsubr
          178 455 rmoveto
          -424 -59 280 270 callsubr
          -76 124 rlineto
          76 59 -91 -88 callsubr
          -219 vlineto
          -53 26 -26 53 vhcurveto
          52 -46 callsubr
        </CharString>
        <CharString name="dvB_SA">
          316 605 344 242 callsubr
          -450 -426 -77 callsubr
          517 485 rmoveto
          -768 -59 431 hlineto
          122 callgsubr
          -121 hlineto
          -14 callsubr
          99 -94 callgsubr
          -8 -23 callsubr
        </CharString>
        <CharString name="dvB_SHA">
          314 235 28 callgsubr
          -255 -59 255 hlineto
          -70 -426 -77 callsubr
          115 486 102 callsubr
          -49 hlineto
          -14 callsubr
          99 -94 callgsubr
          -8 -31 callgsubr
        </CharString>
        <CharString name="dvB_TA">
          171 155 137 -77 callsubr
          382 485 rmoveto
          -633 -59 489 239 callsubr
          -81 vlineto
          -14 callsubr
          99 -94 callgsubr
          -8 -41 callsubr
        </CharString>
        <CharString name="dvB_VA">
          151 155 137 -77 callsubr
          352 485 rmoveto
          -603 -59 459 -392 hlineto
          -26 -8 -8 -97 callgsubr
          -135 -10 callgsubr
          15 5 14 9 hvcurveto
          -13 13 20 -6 26 hhcurveto
          63 -91 callsubr
        </CharString>
        <CharString name="dvB_YA">
          246 534 -85 callgsubr
          -379 -426 -77 callsubr
          447 485 rmoveto
          -698 -59 350 170 callgsubr
          -53 -26 -26 -53 hvcurveto
          -249 167 callsubr
        </CharString>
        <CharString name="dvC">
          -205 137 395 rmoveto
          24 callsubr
          149 59 -128 -103 callgsubr
          -157 454 rmoveto
          -59 316 59 vlineto
          endchar
        </CharString>
        <CharString name="dvCA">
          -26 406 622 94 callsubr
        </CharString>
        <CharString name="dvCH">
          89 521 28 callgsubr
          -541 -59 83 249 callsubr
          -182 -84 callsubr
          -181 -98 callsubr
          240 -104 callgsubr
          327 -98 callgsubr
          -52 -88 callsubr
          -81 callsubr
          347 hlineto
          endchar
        </CharString>
        <CharString name="dvCHA">
          89 318 485 2 callsubr
        </CharString>
        <CharString name="dvCH_RA">
          89 318 -16 callsubr
          -541 -59 83 221 callgsubr
          -181 -98 callsubr
          59 hlineto
          -74 -140 15 callsubr
          -73 140 rlineto
          56 -104 callgsubr
          327 vlineto
          50 -23 26 -48 3 vhcurveto
          78 vlineto
          endchar
        </CharString>
        <CharString name="dvCH_R_YA">
          516 804 -69 callsubr
          57 32 -70 callgsubr
          102 -98 callgsubr
          -314 -88 callsubr
          -81 callsubr
          630 hlineto
          131 callgsubr
          -968 -59 83 249 callsubr
          -182 -84 callsubr
          -181 -98 callsubr
          55 hlineto
          -74 -140 15 callsubr
          -73 140 rlineto
          60 -104 callgsubr
          327 177 callgsubr
          163 -92 callsubr
          -80 191 callgsubr
          -127 hlineto
          -92 callgsubr
        </CharString>
        <CharString name="dvCH_YA">
          516 804 -69 callsubr
          57 32 -70 callgsubr
          102 -98 callgsubr
          -314 -88 callsubr
          -81 callsubr
          630 hlineto
          131 callgsubr
          -968 -59 83 249 callsubr
          -182 -84 callsubr
          -181 -98 callsubr
          240 -104 callgsubr
          327 177 callgsubr
          163 -92 callsubr
          -80 191 callgsubr
          -127 hlineto
          -92 callgsubr
        </CharString>
        <CharString name="dvC_CA">
          168 600 28 callgsubr
          -620 -59 476 104 callgsubr
          21 5 10 28 vhcurveto
          39 59 -174 -59 41 249 callsubr
          -230 vlineto
          -24 -8 -9 140 callsubr
          21 5 10 28 vhcurveto
          9 59 -174 -59 71 43 callsubr
          85 226 callgsubr
          83 -91 callsubr
        </CharString>
        <CharString name="dvC_CHA">
          296 525 -16 callsubr
          -748 -59 290 221 callgsubr
          -90 vlineto
          27 callsubr
          17 14 2 6 10 hvcurveto
          -7 -98 callsubr
          240 -104 callgsubr
          327 vlineto
          50 -23 26 -48 3 vhcurveto
          78 vlineto
          endchar
        </CharString>
        <CharString name="dvC_CH_VA">
          296 525 -55 callgsubr
          -99 -662 rmoveto
          260 callsubr
          41 vlineto
          20 3 8 13 2 vhcurveto
          110 -68 hlineto
          -24 -7 -7 -23 vhcurveto
          234 662 rmoveto
          59 -748 -59 290 221 callgsubr
          -90 vlineto
          27 callsubr
          17 14 2 6 10 hvcurveto
          -7 vlineto
          -51 24 -26 50 -2 vhcurveto
          -5 -5 -2 -8 -12 vvcurveto
          -56 vlineto
          -47 25 -30 53 vhcurveto
          89 hlineto
          13 9 2 6 6 hvcurveto
          -65 69 215 vlineto
          45 4 22 26 49 vvcurveto
          327 vlineto
          50 -23 26 -48 3 vhcurveto
          78 vlineto
          endchar
        </CharString>
        <CharString name="dvC_MA">
          334 622 7 callgsubr
          326 249 rmoveto
          -786 -59 460 149 callsubr
          -183 vlineto
          27 callsubr
          30 18 7 15 10 hvcurveto
          -15 13 21 -7 28 hhcurveto
          171 callgsubr
        </CharString>
        <CharString name="dvC_NA">
          291 422 -10 callsubr
          -743 -59 599 163 callsubr
          -236 vlineto
          27 callsubr
          30 18 7 15 10 hvcurveto
          -15 13 21 -7 28 172 callsubr
        </CharString>
        <CharString name="dvC_R">
          -166 137 395 rmoveto
          212 callgsubr
          40 59 -204 265 callsubr
          -213 144 callsubr
          -28 callgsubr
          115 175 rlineto
          42 -98 241 callgsubr
          -157 424 rmoveto
          -59 286 59 vlineto
          endchar
        </CharString>
        <CharString name="dvC_RA">
          -21 301 callgsubr
          -362 hlineto
          -83 callgsubr
          -60 -103 callgsubr
          197 vlineto
          212 callgsubr
          40 59 -204 265 callsubr
          -213 144 callsubr
          -46 callsubr
        </CharString>
        <CharString name="dvC_YA">
          243 531 -19 callsubr
          -695 -59 347 -42 callsubr
          -204 hlineto
          27 callsubr
          30 18 7 15 10 hvcurveto
          -15 13 21 245 callgsubr
        </CharString>
        <CharString name="dvCandrabindu">
          161 callgsubr
          30 39 rmoveto
          -69 68 69 vlineto
          endchar
        </CharString>
        <CharString name="dvD">
          -35 230 hmoveto
          69 266 -69 -95 hlineto
          -26 -8 -8 -26 vhcurveto
          -41 hlineto
          -26 -5 5 26 hvcurveto
          227 216 callgsubr
          198 callsubr
          67 -148 219 callgsubr
        </CharString>
        <CharString name="dvDA">
          -65 292 426 rmoveto
          137 75 59 -387 -59 243 -78 -89 vlineto
          -53 -26 -26 -53 hvcurveto
          -249 -21 callgsubr
        </CharString>
        <CharString name="dvDA_mvR">
          80 callsubr
          -86 -3 vlineto
          -51 -25 -82 callgsubr
          -58 41 callgsubr
          48 324 -69 -95 hlineto
          114 callsubr
        </CharString>
        <CharString name="dvDD">
          -61 131 -61 96 callsubr
          -227 683 rmoveto
          -59 232 -78 -73 vlineto
          -53 -26 -26 -53 hvcurveto
          -77 callgsubr
          121 137 90 59 hlineto
          endchar
        </CharString>
        <CharString name="dvDDA">
          -61 281 267 callgsubr
          -391 -59 232 -78 -73 vlineto
          -53 -26 -26 -53 hvcurveto
          10 callsubr
        </CharString>
        <CharString name="dvDDH">
          -35 131 -61 96 callsubr
          75 487 rmoveto
          137 115 59 -417 -59 233 -78 -79 vlineto
          -31 callsubr
          endchar
        </CharString>
        <CharString name="dvDDHA">
          -35 282 129 callgsubr
          115 59 -417 -59 233 -78 -79 vlineto
          -31 callsubr
          endchar
        </CharString>
        <CharString name="dvDDH_DDHA">
          -35 282 129 callgsubr
          115 59 -417 209 callsubr
          -189 -84 callsubr
          -186 275 callsubr
          41 -98 callgsubr
          -91 -59 70 -92 callsubr
          -19 180 callsubr
          164 -106 callgsubr
          114 151 callgsubr
          endchar
        </CharString>
        <CharString name="dvDDH_R">
          -35 151 -152 96 callsubr
          -247 774 rmoveto
          209 callsubr
          -327 vlineto
          -51 24 -26 48 -2 vhcurveto
          -74 -140 15 callsubr
          -74 140 rlineto
          48 3 23 26 50 vvcurveto
          125 -98 callgsubr
          -62 -59 41 -92 callsubr
          -103 -99 callgsubr
          -67 -73 callsubr
          127 137 115 59 hlineto
          endchar
        </CharString>
        <CharString name="dvDDH_RA">
          -35 282 129 callgsubr
          115 59 -417 209 callsubr
          -327 vlineto
          -51 24 -26 48 -2 vhcurveto
          -74 -140 15 callsubr
          -74 140 rlineto
          48 3 23 26 50 vvcurveto
          125 -98 callgsubr
          -62 -59 41 -92 callsubr
          -103 -99 callgsubr
          -67 -73 callsubr
          endchar
        </CharString>
        <CharString name="dvDDH_YA">
          366 654 -69 callsubr
          92 32 -70 callgsubr
          -36 callgsubr
          -204 78 372 hlineto
          131 callgsubr
          -818 286 callgsubr
          hlineto
          -31 callsubr
          310 -92 callsubr
          -45 191 callgsubr
          -162 hlineto
          -92 callgsubr
        </CharString>
        <CharString name="dvDDHxA">
          -35 154 -139 2 callgsubr
          128 479 rmoveto
          137 115 59 -417 -59 233 -78 -79 vlineto
          -31 callsubr
          endchar
        </CharString>
        <CharString name="dvDD_DDA">
          88 callsubr
          -40 -98 callsubr
          114 299 callgsubr
          180 callsubr
          12 -69 -23 275 callsubr
          46 -98 callgsubr
          -114 298 callsubr
          -106 callgsubr
          114 -104 callgsubr
          47 -98 callgsubr
          -102 298 callsubr
          -106 callgsubr
          endchar
        </CharString>
        <CharString name="dvDD_DDHA">
          88 callsubr
          -185 vlineto
          -53 26 -26 53 vhcurveto
          135 151 callgsubr
          114 -104 callgsubr
          47 -98 callgsubr
          -102 298 callsubr
          -106 callgsubr
          endchar
        </CharString>
        <CharString name="dvDD_R">
          -61 131 -152 96 callsubr
          74 578 300 callsubr
          -391 -59 232 -78 -73 vlineto
          82 callsubr
          -48 21 -25 43 -5 vhcurveto
          -75 -141 15 callsubr
          -74 142 rlineto
          37 7 19 25 45 vvcurveto
          136 -98 callgsubr
          -52 -103 callgsubr
          70 -106 callgsubr
          endchar
        </CharString>
        <CharString name="dvDD_RA">
          -61 281 267 callgsubr
          -391 -59 232 -78 -73 vlineto
          82 callsubr
          -48 21 -25 43 -5 vhcurveto
          -75 -141 15 callsubr
          -74 142 rlineto
          37 7 19 25 45 vvcurveto
          136 -98 callgsubr
          -52 -103 callgsubr
          70 -106 callgsubr
          endchar
        </CharString>
        <CharString name="dvDD_VA">
          -53 250 90 rmoveto
          -24 -7 -7 -23 vhcurveto
          -78 hlineto
          260 callsubr
          33 -106 callgsubr
          69 hlineto
          14 12 2 3 10 hvcurveto
          53 270 247 callgsubr
          -97 vlineto
          -104 callsubr
          -30 -27 callsubr
          hlineto
          26 5 -5 -21 hvcurveto
          -35 vlineto
          -21 -102 callsubr
          -74 -103 callgsubr
          13 -69 -27 -84 callsubr
          -55 vlineto
          -47 25 -30 53 vhcurveto
          99 hlineto
          13 9 2 6 6 hvcurveto
          -65 69 334 -98 callgsubr
          -82 hlineto
          -26 -5 5 21 hvcurveto
          13 -106 callgsubr
          endchar
        </CharString>
        <CharString name="dvDD_YA">
          335 623 -69 callsubr
          92 32 -70 callgsubr
          -36 callgsubr
          -174 78 342 hlineto
          131 callgsubr
          -787 -59 232 -78 -73 hlineto
          -53 -26 -26 -53 hvcurveto
          -77 callgsubr
          274 -92 callsubr
          -45 191 callgsubr
          -162 hlineto
          -92 callgsubr
        </CharString>
        <CharString name="dvDDxA">
          -61 129 -139 2 callgsubr
          152 479 300 callsubr
          -391 -59 232 -78 -73 vlineto
          -53 -26 -26 -53 hvcurveto
          10 callsubr
        </CharString>
        <CharString name="dvDH">
          -82 141 404 rmoveto
          133 -106 callgsubr
          10 -92 callsubr
          -45 52 56 -98 callgsubr
          -35 -88 callsubr
          -158 103 callsubr
          270 59 -249 -103 callgsubr
          115 -106 callgsubr
          68 59 -68 -103 callgsubr
          endchar
        </CharString>
        <CharString name="dvDHA">
          32 464 28 callgsubr
          -144 -451 -11 callsubr
          137 -91 callsubr
        </CharString>
        <CharString name="dvDH_MA">
          392 680 402 rmoveto
          -113 161 113 hlineto
          -182 -395 -76 callgsubr
          326 279 rmoveto
          -504 -59 178 -161 156 callgsubr
          -152 48 callgsubr
          89 -104 callgsubr
          186 113 -343 69 -28 callsubr
        </CharString>
        <CharString name="dvDH_NA">
          349 480 -10 callsubr
          -461 -59 317 163 callsubr
          -235 48 callgsubr
          19 callgsubr
          88 -426 69 1 callsubr
          endchar
        </CharString>
        <CharString name="dvDH_N_YA">
          621 909 -33 callgsubr
          573 256 rmoveto
          -733 -59 385 hlineto
          -25 callgsubr
          -75 -99 callgsubr
          -321 -88 callsubr
          -175 48 callgsubr
          -38 callsubr
        </CharString>
        <CharString name="dvDH_R">
          -117 72 187 rmoveto
          -107 callsubr
          90 173 callgsubr
          -153 241 callgsubr
          105 -106 callgsubr
          68 59 -68 -103 callgsubr
          113 -106 callgsubr
          10 -92 callsubr
          -45 52 56 -98 callgsubr
          -35 -88 callsubr
          -138 -84 callsubr
          endchar
        </CharString>
        <CharString name="dvDH_RA">
          32 464 28 callgsubr
          -144 -421 hlineto
          -83 callgsubr
          -114 -103 callgsubr
          105 -106 callgsubr
          68 59 -68 -103 callgsubr
          113 -106 callgsubr
          10 -92 callsubr
          -45 52 56 -98 callgsubr
          -35 -88 callsubr
          -138 -84 callsubr
          182 callgsubr
          90 -46 callsubr
        </CharString>
        <CharString name="dvDH_VA">
          206 638 28 callgsubr
          -318 -59 174 -392 hlineto
          -26 -8 -8 -97 callgsubr
          -235 48 callgsubr
          63 -91 callsubr
        </CharString>
        <CharString name="dvDH_YA">
          301 589 -19 callsubr
          -413 -59 65 -42 callsubr
          -203 hlineto
          -20 callgsubr
          -93 callgsubr
        </CharString>
        <CharString name="dvD_BA">
          -33 224 206 rmoveto
          14 12 2 3 10 hvcurveto
          -121 vlineto
          -4 0 -3 -1 -4 vhcurveto
          -119 126 rlineto
          1 4 5 0 6 hhcurveto
          75 -147 rmoveto
          -78 hlineto
          260 callsubr
          88 vlineto
          111 -116 rlineto
          78 367 247 callgsubr
          -110 vlineto
          -104 callsubr
          30 callsubr
        </CharString>
        <CharString name="dvD_BHA">
          64 126 175 rmoveto
          -96 callsubr
          -30 -59 9 -92 callsubr
          -241 69 77 169 59 -169 vlineto
          295 337 rmoveto
          167 75 59 -516 -59 372 -108 -89 vlineto
          -104 callsubr
          -186 vlineto
          262 callsubr
          286 -69 -82 vlineto
          -83 callgsubr
          -41 -103 callgsubr
          164 -106 callgsubr
          endchar
        </CharString>
        <CharString name="dvD_B_RA">
          -33 224 214 rmoveto
          14 12 2 3 10 hvcurveto
          -126 vlineto
          -3 vlineto
          -118 123 rlineto
          1 4 4 0 5 hhcurveto
          -3 -155 rmoveto
          260 callsubr
          96 vlineto
          3 vlineto
          119 -125 rlineto
          -1 -4 -6 -1 -7 hhcurveto
          87 367 247 callgsubr
          -110 vlineto
          -104 callsubr
          -116 -84 callsubr
          -118 vlineto
          -47 25 -30 53 vhcurveto
          43 hlineto
          -103 -108 rlineto
          76 hlineto
          111 120 rlineto
          -69 69 404 -69 -48 vlineto
          -21 -102 callsubr
          -74 -103 callgsubr
          91 -106 callgsubr
          endchar
        </CharString>
        <CharString name="dvD_DA">
          -28 314 267 callgsubr
          -424 -59 265 -78 -111 vlineto
          -104 callsubr
          -73 -84 callsubr
          -81 -98 callsubr
          94 47 callgsubr
          -71 -103 callgsubr
          58 -106 callgsubr
          56 59 -56 -103 callgsubr
          48 -106 callgsubr
          endchar
        </CharString>
        <CharString name="dvD_DHA">
          128 124 96 212 callsubr
          36 59 -36 -103 callgsubr
          48 -106 callgsubr
          36 59 -57 hlineto
          161 callsubr
          361 346 245 callsubr
          -226 vlineto
          152 callsubr
        </CharString>
        <CharString name="dvD_GA">
          116 callsubr
          -178 69 357 217 callgsubr
        </CharString>
        <CharString name="dvD_GHA">
          128 485 396 245 callsubr
          -21 -114 vlineto
          161 callsubr
          46 -106 callgsubr
          36 59 -36 -103 callgsubr
          48 -106 callgsubr
          93 -146 hlineto
          152 callsubr
        </CharString>
        <CharString name="dvD_G_RA">
          116 callsubr
          -97 vlineto
          -185 -172 rlineto
          78 hlineto
          107 99 rlineto
          -71 69 420 217 callgsubr
        </CharString>
        <CharString name="dvD_MA">
          119 407 159 rmoveto
          -113 137 264 callgsubr
          167 -106 callgsubr
          137 137 120 hlineto
          131 callgsubr
          -571 -59 238 -78 -89 -88 callsubr
          -189 -98 callsubr
          183 callgsubr
          -147 69 100 113 -100 69 -28 callsubr
        </CharString>
        <CharString name="dvD_NA">
          80 callsubr
          -67 -64 vlineto
          -104 callsubr
          -37 69 26 -106 callgsubr
          43 -99 69 404 -69 -95 hlineto
          114 callsubr
        </CharString>
        <CharString name="dvD_R">
          -65 230 hmoveto
          69 266 264 callgsubr
          197 216 callgsubr
          128 callgsubr
          17 -45 callsubr
          67 -178 219 callgsubr
        </CharString>
        <CharString name="dvD_RA">
          -65 292 129 callgsubr
          75 59 -387 294 callsubr
          49 callsubr
        </CharString>
        <CharString name="dvD_VA">
          -53 214 188 callsubr
          167 220 rmoveto
          137 67 59 -399 -59 263 -78 -119 vlineto
          -104 callsubr
          30 callsubr
        </CharString>
        <CharString name="dvD_YA">
          31 319 -69 callsubr
          58 -106 callgsubr
          56 59 -56 -103 callgsubr
          48 -106 callgsubr
          80 137 89 hlineto
          131 callgsubr
          -483 -59 181 -78 -32 -88 callsubr
          -73 -84 callsubr
          -81 -63 callsubr
        </CharString>
        <CharString name="dvE">
          -35 397 28 callgsubr
          -417 27 callgsubr
        </CharString>
        <CharString name="dvEcandra">
          -35 242 666 rmoveto
          232 callgsubr
          -64 -46 -98 callsubr
          255 -44 rmoveto
          -417 27 callgsubr
        </CharString>
        <CharString name="dvEight">
          21 callgsubr
        </CharString>
        <CharString name="dvEyelash">
          -123 309 374 rmoveto
          -104 -103 callgsubr
          62 -69 -73 -98 callsubr
          125 hlineto
          -329 307 rmoveto
          -59 329 59 vlineto
          endchar
        </CharString>
        <CharString name="dvEyelash_HA">
          95 452 297 callsubr
          -557 -59 403 -78 -105 vlineto
          -104 callsubr
          -62 -74 241 callgsubr
          62 -69 -73 -98 callsubr
          132 -2 hlineto
          -23 -2 -14 -15 -29 vvcurveto
          -158 -98 callsubr
          184 59 -163 -49 callsubr
          endchar
        </CharString>
        <CharString name="dvEyelash_YA">
          127 415 -19 callsubr
          -579 -59 231 hlineto
          -64 callgsubr
          -91 -103 callgsubr
          62 -69 -73 -98 callsubr
          32 -158 hlineto
          -92 callgsubr
        </CharString>
        <CharString name="dvFive">
          100 callsubr
        </CharString>
        <CharString name="dvFour">
          162 callgsubr
        </CharString>
        <CharString name="dvG">
          -78 135 137 -65 callsubr
          170 485 rmoveto
          -374 -59 -73 callgsubr
          70 vlineto
          endchar
        </CharString>
        <CharString name="dvGA">
          100 135 137 -65 callsubr
          348 485 rmoveto
          -552 -59 -73 callgsubr
          235 callsubr
        </CharString>
        <CharString name="dvGH">
          -175 324 269 callsubr
          -344 -59 76 vlineto
          26 callgsubr
          -141 -84 callsubr
          -144 -98 callsubr
          197 59 -176 187 callsubr
          endchar
        </CharString>
        <CharString name="dvGHA">
          4 292 147 callsubr
          131 callgsubr
          -456 -59 82 hlineto
          257 callgsubr
          -136 -84 callsubr
          -144 -98 callsubr
          133 -91 callsubr
        </CharString>
        <CharString name="dvGH_MA">
          347 636 7 callgsubr
          -306 -236 188 callgsubr
          306 149 callsubr
          -183 vlineto
          -24 -8 -9 -26 vhcurveto
          537 485 rmoveto
          -799 136 callsubr
          89 -104 callgsubr
          216 113 -373 69 563 74 vlineto
          endchar
        </CharString>
        <CharString name="dvGH_NA">
          315 593 485 rmoveto
          183 callsubr
          -236 vlineto
          -24 -8 -9 -26 vhcurveto
          -94 187 callsubr
          445 hlineto
          -157 -395 -91 callgsubr
          301 196 rmoveto
          -757 136 callsubr
          19 callgsubr
          88 -426 69 1 callsubr
          endchar
        </CharString>
        <CharString name="dvGH_R">
          -112 327 269 callsubr
          -347 -59 82 vlineto
          257 callgsubr
          -119 -84 callsubr
          -131 -98 callsubr
          116 173 callgsubr
          -179 241 callgsubr
          108 -106 callgsubr
          68 59 -68 -103 callgsubr
          105 vlineto
          212 callgsubr
          endchar
        </CharString>
        <CharString name="dvGH_RA">
          4 292 282 callgsubr
          253 callsubr
          107 -106 callgsubr
          68 59 -68 -103 callgsubr
          106 vlineto
          212 callgsubr
          143 hlineto
          131 callgsubr
          -456 -59 82 hlineto
          257 callgsubr
          -120 -84 callsubr
          -130 -98 callsubr
          86 -46 callsubr
        </CharString>
        <CharString name="dvGH_YA">
          237 545 -85 callgsubr
          -397 -426 188 callgsubr
          193 -42 callsubr
          -204 hlineto
          -24 -8 -9 -26 vhcurveto
          427 485 rmoveto
          -689 136 callsubr
          292 callsubr
          563 55 vlineto
          endchar
        </CharString>
        <CharString name="dvG_BA">
          297 483 137 -77 callsubr
          -424 224 callsubr
          553 485 rmoveto
          -757 -59 -73 callgsubr
          309 -238 vlineto
          139 callsubr
        </CharString>
        <CharString name="dvG_BHA">
          447 135 137 -65 callsubr
          -204 426 rmoveto
          -73 callgsubr
          64 59 -368 vlineto
          573 -454 -48 callgsubr
          326 280 rmoveto
          -144 -221 -113 142 hlineto
          -50 callgsubr
          113 -342 69 -28 callsubr
        </CharString>
        <CharString name="dvG_BH_YA">
          716 135 137 -65 callsubr
          -204 426 rmoveto
          -73 callgsubr
          64 59 -368 vlineto
          999 -451 -8 callsubr
        </CharString>
        <CharString name="dvG_DA">
          267 135 137 -65 callsubr
          433 289 rmoveto
          137 75 59 -712 -59 235 -137 -101 vlineto
          -104 callsubr
          -190 -45 callgsubr
          406 264 -78 -89 vlineto
          -104 callsubr
          -249 -21 callgsubr
        </CharString>
        <CharString name="dvG_DHA">
          340 135 137 -65 callsubr
          -204 426 rmoveto
          -73 callgsubr
          64 59 -368 vlineto
          792 hmoveto
          -144 -451 -11 callsubr
          137 -91 callsubr
        </CharString>
        <CharString name="dvG_DH_VA">
          514 135 137 -65 callsubr
          -204 426 rmoveto
          -73 callgsubr
          64 59 -368 vlineto
          966 hmoveto
          -318 -59 174 -392 hlineto
          -26 -8 -8 -97 callgsubr
          -235 vlineto
          -72 callgsubr
          148 hlineto
          21 13 5 16 5 hvcurveto
          -14 13 21 -7 27 hhcurveto
          63 -91 callsubr
        </CharString>
        <CharString name="dvG_DH_YA">
          609 135 137 -65 callsubr
          -204 426 rmoveto
          -73 callgsubr
          64 59 -368 vlineto
          917 -451 4 callgsubr
          -413 -59 65 -42 callsubr
          -203 -11 callsubr
          148 hlineto
          21 13 5 16 5 hvcurveto
          -14 13 21 -7 27 hhcurveto
          -93 callgsubr
        </CharString>
        <CharString name="dvG_GA">
          430 465 137 -65 callsubr
          -379 224 callsubr
          678 485 rmoveto
          -882 -59 -73 callgsubr
          261 -137 -101 vlineto
          -104 callsubr
          -190 -45 callgsubr
          406 235 callsubr
        </CharString>
        <CharString name="dvG_GHA">
          342 630 147 callsubr
          -495 -426 -65 callsubr
          590 485 rmoveto
          -794 -59 -73 callgsubr
          116 vlineto
          257 callgsubr
          -136 -84 callsubr
          -144 -98 callsubr
          133 -91 callsubr
        </CharString>
        <CharString name="dvG_JA">
          413 135 137 -65 callsubr
          661 485 rmoveto
          -865 -59 -73 callgsubr
          417 -78 -156 51 callgsubr
          87 -426 69 -28 callsubr
        </CharString>
        <CharString name="dvG_LA">
          406 135 137 -65 callsubr
          654 485 rmoveto
          -858 -59 -73 callgsubr
          417 -78 -80 vlineto
          -96 callgsubr
          -206 69 206 vlineto
          26 5 5 26 vhcurveto
          63 -426 69 563 68 hlineto
          endchar
        </CharString>
        <CharString name="dvG_MA">
          447 735 432 44 callsubr
          -365 -76 callgsubr
          -418 -236 -65 callsubr
          695 485 rmoveto
          -899 -59 -73 callgsubr
          269 -131 229 callgsubr
          79 callgsubr
        </CharString>
        <CharString name="dvG_NA">
          404 535 168 -91 callgsubr
          -400 -289 -65 callsubr
          652 485 rmoveto
          -856 -59 -73 callgsubr
          408 -78 -238 vlineto
          185 callsubr
        </CharString>
        <CharString name="dvG_NNA">
          413 545 168 -23 callgsubr
          -410 -426 -65 callsubr
          661 485 rmoveto
          -865 -59 -73 callgsubr
          96 -406 -60 callsubr
          406 87 276 callsubr
        </CharString>
        <CharString name="dvG_N_YA">
          676 964 -33 callgsubr
          -400 -229 -65 callsubr
          924 485 rmoveto
          -1128 -59 -73 callgsubr
          476 154 callgsubr
          -321 -88 callsubr
          -189 vlineto
          -26 callgsubr
        </CharString>
        <CharString name="dvG_R">
          -67 211 -50 77 callsubr
        </CharString>
        <CharString name="dvG_RA">
          100 135 207 68 callsubr
        </CharString>
        <CharString name="dvG_R_YA">
          348 636 -85 callgsubr
          -501 -356 71 callgsubr
          596 415 rmoveto
          -800 -59 235 -78 -101 hlineto
          231 callgsubr
          148 207 callsubr
          -158 hlineto
          -241 -266 rlineto
          85 hlineto
          160 176 rlineto
          -32 9 24 -16 42 hhcurveto
          -93 callgsubr
        </CharString>
        <CharString name="dvG_SA">
          426 715 344 242 callsubr
          -580 -426 -65 callsubr
          674 485 rmoveto
          -878 -59 -73 callgsubr
          237 vlineto
          -100 callgsubr
          271 -285 68 1 callsubr
          endchar
        </CharString>
        <CharString name="dvG_VA">
          261 135 137 -65 callsubr
          509 485 rmoveto
          -713 -59 -73 callgsubr
          265 -392 vlineto
          -26 -8 -8 -97 callgsubr
          -249 79 callsubr
        </CharString>
        <CharString name="dvG_YA">
          356 644 -85 callgsubr
          -509 -426 -65 callsubr
          604 485 rmoveto
          -808 -59 -73 callgsubr
          156 207 callsubr
          -217 hlineto
          -92 callgsubr
        </CharString>
        <CharString name="dvGx">
          -78 120 -87 2 callgsubr
          15 138 -65 callsubr
          170 485 rmoveto
          -374 -59 -73 callgsubr
          70 vlineto
          endchar
        </CharString>
        <CharString name="dvGxA">
          100 119 -87 2 callgsubr
          16 138 -65 callsubr
          348 485 rmoveto
          -552 -59 -73 callgsubr
          235 callsubr
        </CharString>
        <CharString name="dvGx_R">
          -67 316 -104 2 callgsubr
          -105 -32 77 callsubr
        </CharString>
        <CharString name="dvGx_RA">
          100 290 -130 2 callgsubr
          -155 251 68 callsubr
        </CharString>
        <CharString name="dvH">
          -78 308 129 callgsubr
          111 59 -439 124 callgsubr
          264 59 -264 168 callsubr
        </CharString>
        <CharString name="dvHA">
          -49 308 426 rmoveto
          137 85 59 -413 124 callgsubr
          63 -92 callsubr
          -51 69 62 -98 callgsubr
          -84 168 callsubr
        </CharString>
        <CharString name="dvHA_mU">
          223 callsubr
          58 callgsubr
          -158 -98 callsubr
          84 -92 callsubr
          -36 -99 callgsubr
          -72 238 callgsubr
          90 -104 callgsubr
          58 -98 callgsubr
          -84 -49 callsubr
          endchar
        </CharString>
        <CharString name="dvHA_mUU">
          -39 361 -6 rmoveto
          53 -33 -20 12 -66 hhcurveto
          -87 -49 callsubr
          153 137 85 59 -413 194 callgsubr
          -38 13 -24 28 -11 vhcurveto
          -2 -7 -1 -9 -10 vvcurveto
          167 callgsubr
          endchar
        </CharString>
        <CharString name="dvHA_mvR">
          223 callsubr
          -64 -84 callsubr
          -168 -98 callsubr
          184 59 -163 -103 callgsubr
          145 -106 callgsubr
          58 hlineto
          11 4 -4 -8 hvcurveto
          -21 -41 -38 -42 vvcurveto
          -39 26 -15 44 vhcurveto
          52 56 -36 hlineto
          -11 -4 4 8 hvcurveto
          21 42 41 42 vvcurveto
          39 -26 15 -44 vhcurveto
          -75 230 callgsubr
          -106 callgsubr
          endchar
        </CharString>
        <CharString name="dvH_LA">
          102 308 129 callgsubr
          235 59 -563 123 callgsubr
          226 -92 callsubr
          -16 -49 vlineto
          -23 -9 -9 -14 -6 hvcurveto
          -1 hlineto
          16 -5 -13 7 -29 hhcurveto
          -33 hlineto
          -45 -21 -21 -43 hvcurveto
          -66 vlineto
          -45 21 -21 45 vhcurveto
          67 51 -50 hlineto
          -22 -4 4 22 hvcurveto
          45 vlineto
          22 4 4 22 vhcurveto
          8 hlineto
          22 4 -4 -22 hvcurveto
          -32 57 32 vlineto
          22 4 4 22 vhcurveto
          34 -147 65 222 hlineto
          -96 callsubr
          -243 168 callsubr
        </CharString>
        <CharString name="dvH_MA">
          119 413 241 rmoveto
          -95 hlineto
          50 -2 -26 24 -51 hhcurveto
          164 callgsubr
          49 -106 callgsubr
          153 137 105 hlineto
          131 callgsubr
          -577 -59 259 -78 -105 hlineto
          138 callsubr
          63 -92 callsubr
          -102 69 59 95 -182 69 -28 callsubr
        </CharString>
        <CharString name="dvH_NA">
          -13 308 129 callgsubr
          111 59 -439 123 callsubr
          123 hlineto
          26 7 -5 -26 hvcurveto
          -19 -74 vlineto
          -53 -21 -82 callgsubr
          -28 64 20 -106 callgsubr
          53 -72 61 158 hlineto
          -96 callsubr
          -138 -103 callgsubr
          19 -106 callgsubr
          endchar
        </CharString>
        <CharString name="dvH_NNA">
          52 271 171 rmoveto
          -13 -3 -4 -14 vhcurveto
          -13 hlineto
          -14 -3 4 13 hvcurveto
          115 47 vlineto
          37 140 rmoveto
          137 176 59 -504 123 callsubr
          14 -122 hlineto
          -38 19 -23 36 vhcurveto
          47 hlineto
          36 19 23 38 hvcurveto
          122 14 174 callgsubr
          -51 66 62 -98 callgsubr
          -203 -103 callgsubr
          19 -106 callgsubr
          endchar
        </CharString>
        <CharString name="dvH_RA">
          11 308 129 callgsubr
          135 59 -463 124 callgsubr
          77 hlineto
          -71 -148 rlineto
          66 hlineto
          70 148 rlineto
          18 -2 4 -6 -23 vvcurveto
          -51 65 62 -98 callgsubr
          -150 168 callsubr
        </CharString>
        <CharString name="dvH_VA">
          34 308 129 callgsubr
          167 59 -495 123 callgsubr
          158 -92 callsubr
          -107 vlineto
          -83 callgsubr
          -57 hlineto
          -22 -4 4 22 hvcurveto
          15 vlineto
          22 4 4 22 vhcurveto
          43 48 -60 hlineto
          -45 -21 -21 -43 hvcurveto
          -36 vlineto
          -45 21 -21 45 vhcurveto
          76 -94 callgsubr
          -48 65 242 -98 callgsubr
          -175 168 callsubr
        </CharString>
        <CharString name="dvH_YA">
          131 419 225 rmoveto
          -83 callgsubr
          -88 hlineto
          9 7 5 14 17 vvcurveto
          13 vlineto
          59 -24 30 -63 vhcurveto
          -69 -103 callgsubr
          33 -106 callgsubr
          153 137 111 hlineto
          303 callsubr
          -582 286 callsubr
          -88 callsubr
          -58 -84 callsubr
          -174 -98 callsubr
          184 59 -163 -103 callgsubr
          151 -106 callgsubr
          56 -92 callsubr
          -19 -99 callgsubr
          -30 -59 206 -94 callgsubr
          -141 138 callgsubr
        </CharString>
        <CharString name="dvI">
          -72 284 129 callgsubr
          76 59 -380 14 callsubr
          endchar
        </CharString>
        <CharString name="dvII">
          -72 284 129 callgsubr
          76 59 -76 62 vlineto
          26 5 4 -20 callsubr
          -55 hlineto
          -53 -26 -25 -53 hvcurveto
          -73 -235 14 callsubr
          endchar
        </CharString>
        <CharString name="dvII_Anusvara">
          -72 284 724 rmoveto
          26 5 4 -20 callsubr
          -55 hlineto
          -53 -26 -25 -53 hvcurveto
          -113 -235 14 callsubr
          149 137 76 59 -76 hlineto
          30 97 219 callsubr
        </CharString>
        <CharString name="dvJ">
          -101 399 126 callsubr
        </CharString>
        <CharString name="dvJA">
          78 510 28 callgsubr
          -530 -59 386 -78 -156 95 callgsubr
          87 -426 69 -28 callsubr
        </CharString>
        <CharString name="dvJH">
          -59 292 129 callgsubr
          146 59 -458 291 callsubr
          -98 vlineto
          -53 -26 -26 -53 hvcurveto
          -46 callgsubr
          139 59 -292 hlineto
          141 callsubr
          endchar
        </CharString>
        <CharString name="dvJHA">
          61 callgsubr
          -265 236 callsubr
        </CharString>
        <CharString name="dvJH_MA">
          463 751 432 44 callsubr
          -365 -76 callgsubr
          -423 -49 rmoveto
          121 callsubr
          277 149 callsubr
          -29 vlineto
          504 298 rmoveto
          -915 291 callsubr
          -98 -88 callsubr
          -46 callgsubr
          92 -78 214 callsubr
        </CharString>
        <CharString name="dvJH_NA">
          420 708 485 rmoveto
          183 callsubr
          -82 -245 vlineto
          121 callsubr
          416 hlineto
          -157 -395 -91 callgsubr
          301 196 rmoveto
          -872 291 callsubr
          -98 -88 callsubr
          -46 callgsubr
          92 -108 hlineto
          17 callsubr
        </CharString>
        <CharString name="dvJH_R">
          36 275 -50 rmoveto
          203 213 rlineto
          81 vlineto
          -291 -294 rlineto
          105 476 rmoveto
          137 186 59 -498 291 callsubr
          -98 vlineto
          -53 -26 -26 -53 hvcurveto
          -46 callgsubr
          179 59 -332 hlineto
          141 callsubr
          endchar
        </CharString>
        <CharString name="dvJH_RA">
          61 callgsubr
          -78 hlineto
          172 callgsubr
        </CharString>
        <CharString name="dvJH_YA">
          372 660 -85 callgsubr
          -514 -239 rmoveto
          121 callsubr
          164 -42 callsubr
          -50 hlineto
          413 298 rmoveto
          -824 291 callsubr
          -98 -88 callsubr
          -46 callgsubr
          92 -108 hlineto
          -92 callgsubr
        </CharString>
        <CharString name="dvJ_BA">
          297 475 137 193 callsubr
          -749 -59 605 168 callgsubr
          -335 95 callgsubr
          97 250 callgsubr
          221 callsubr
        </CharString>
        <CharString name="dvJ_DA">
          255 612 129 callgsubr
          82 59 -714 -59 563 -78 -333 51 callgsubr
          97 250 callgsubr
          -249 -21 callgsubr
        </CharString>
        <CharString name="dvJ_DDA">
          254 596 267 callgsubr
          -706 -59 547 -78 -317 51 callgsubr
          97 250 callgsubr
          10 callsubr
        </CharString>
        <CharString name="dvJ_JA">
          408 840 28 callgsubr
          -860 -59 716 64 callsubr
          -234 51 callgsubr
          96 -269 -32 callsubr
          87 -426 69 -28 callsubr
        </CharString>
        <CharString name="dvJ_JHA">
          449 737 91 callgsubr
          131 callgsubr
          -901 -59 572 -78 -342 95 callgsubr
          97 250 callgsubr
          -46 callgsubr
          109 -265 236 callsubr
        </CharString>
        <CharString name="dvJ_J_NYA">
          390 822 28 callgsubr
          -842 -59 697 -78 -467 95 callgsubr
          211 vlineto
          146 callgsubr
        </CharString>
        <CharString name="dvJ_J_VA">
          582 1014 28 callgsubr
          -1034 -59 890 -6 callgsubr
          -290 190 callgsubr
          -234 51 callgsubr
          96 -269 -32 callsubr
          88 114 callgsubr
        </CharString>
        <CharString name="dvJ_J_YA">
          668 956 -69 callsubr
          228 32 -70 callgsubr
          61 -22 callsubr
          131 callgsubr
          -1120 -59 772 hlineto
          -25 callgsubr
          -45 -99 callgsubr
          -236 -287 hlineto
          143 callsubr
          -225 -287 vlineto
          45 callsubr
          -95 callgsubr
          53 vhcurveto
          76 hlineto
          53 26 26 53 hvcurveto
          239 87 -239 -63 callsubr
        </CharString>
        <CharString name="dvJ_KA">
          425 857 269 callsubr
          -877 -59 569 90 callsubr
          -299 95 callgsubr
          97 vlineto
          -1 -6 0 -7 -7 vvcurveto
          -249 -90 callsubr
        </CharString>
        <CharString name="dvJ_MA">
          447 735 432 44 callsubr
          -365 -76 callgsubr
          326 249 rmoveto
          -899 -59 573 -131 -343 -264 hlineto
          -34 callgsubr
          264 -69 -275 -60 callsubr
          216 97 250 callgsubr
          79 callgsubr
        </CharString>
        <CharString name="dvJ_NA">
          404 535 -10 callsubr
          -856 -59 712 -78 -482 95 callgsubr
          97 250 callgsubr
          83 callsubr
        </CharString>
        <CharString name="dvJ_NY">
          -101 68 426 rmoveto
          111 hlineto
          26 5 -5 -26 hvcurveto
          -227 243 callsubr
          243 vlineto
          13 -3 8 -5 5 vhcurveto
          129 59 -332 hlineto
          -88 137 rmoveto
          -59 420 59 vlineto
          endchar
        </CharString>
        <CharString name="dvJ_NYA">
          79 511 28 callgsubr
          -531 -59 386 -78 -298 -59 111 hlineto
          146 callgsubr
        </CharString>
        <CharString name="dvJ_NY_YA">
          347 635 -69 callsubr
          197 32 -70 callgsubr
          92 -22 callsubr
          131 callgsubr
          -799 -59 451 hlineto
          -25 callgsubr
          -76 -99 callgsubr
          -378 -59 111 -92 callsubr
          -166 243 callsubr
          182 vlineto
          13 -3 8 -5 5 vhcurveto
          95 -208 hlineto
          -92 callgsubr
        </CharString>
        <CharString name="dvJ_R">
          86 callsubr
          endchar
        </CharString>
        <CharString name="dvJ_RA">
          78 510 28 callgsubr
          -530 -59 386 -78 -156 40 callsubr
          172 callgsubr
        </CharString>
        <CharString name="dvJ_TA">
          291 723 28 callgsubr
          -743 -59 599 -78 -369 95 callgsubr
          97 250 callgsubr
          54 callsubr
        </CharString>
        <CharString name="dvJ_TTA">
          242 602 426 300 callgsubr
          -694 -59 553 -78 -323 51 callgsubr
          97 250 callgsubr
          -1 callsubr
          endchar
        </CharString>
        <CharString name="dvJ_VA">
          261 693 28 callgsubr
          -713 -59 569 -6 callgsubr
          -299 95 callgsubr
          97 114 callgsubr
        </CharString>
        <CharString name="dvJ_YA">
          347 635 31 callgsubr
        </CharString>
        <CharString name="dvJx">
          -101 121 hmoveto
          -86 73 86 vlineto
          205 126 callsubr
        </CharString>
        <CharString name="dvJxA">
          78 121 -86 2 callgsubr
          389 28 callgsubr
          -530 -59 386 -78 -156 95 callgsubr
          87 -426 69 -28 callsubr
        </CharString>
        <CharString name="dvJx_JxA">
          408 124 -79 2 callgsubr
          335 -86 2 callgsubr
          381 615 rmoveto
          -860 -59 716 64 callsubr
          -234 51 callgsubr
          96 -269 -32 callsubr
          87 -426 69 -28 callsubr
        </CharString>
        <CharString name="dvJx_R">
          86 callsubr
          -127 -180 202 callsubr
        </CharString>
        <CharString name="dvJx_RA">
          78 286 -119 2 callgsubr
          224 655 rmoveto
          -530 -59 386 -78 -156 40 callsubr
          172 callgsubr
        </CharString>
        <CharString name="dvJx_YA">
          347 122 -86 2 callgsubr
          513 31 callgsubr
        </CharString>
        <CharString name="dvK">
          -60 441 269 callsubr
          -461 -59 239 -392 vlineto
          -26 -8 -8 -97 callgsubr
          -51 callsubr
          63 -32 callgsubr
          362 -35 callsubr
          119 59 -121 201 callsubr
        </CharString>
        <CharString name="dvKA">
          95 527 269 callsubr
          -547 -59 239 -392 vlineto
          -26 -8 -8 -97 callgsubr
          -249 -90 callsubr
        </CharString>
        <CharString name="dvKH">
          -3 361 381 rmoveto
          231 callsubr
          123 59 -106 -103 callgsubr
          -381 413 rmoveto
          -59 172 vlineto
          -4 callsubr
          254 59 hlineto
          endchar
        </CharString>
        <CharString name="dvKHA">
          172 604 28 callgsubr
          -624 -59 172 hlineto
          26 5 -5 -26 hvcurveto
          -196 vlineto
          -26 -5 -5 -26 vhcurveto
          -35 166 -69 -392 -15 callgsubr
        </CharString>
        <CharString name="dvKH_KHA">
          588 1020 28 callgsubr
          -1040 -76 callsubr
          324 -36 callsubr
          -254 hlineto
          -62 callsubr
          -55 vlineto
          58 callsubr
        </CharString>
        <CharString name="dvKH_MA">
          493 799 432 rmoveto
          -88 131 88 hlineto
          -157 -365 -76 callgsubr
          301 249 rmoveto
          -963 -76 callsubr
          398 149 callsubr
          -147 154 callsubr
          197 -41 callgsubr
          -219 142 callsubr
          23 20 7 19 8 hvcurveto
          -17 13 22 -9 30 302 callsubr
          88 -373 69 -28 callsubr
        </CharString>
        <CharString name="dvKH_NA">
          493 624 -10 callsubr
          -945 -76 callsubr
          537 163 callsubr
          -189 154 callsubr
          186 -41 callgsubr
          -208 142 callsubr
          19 13 5 12 7 hvcurveto
          -39 6 25 -19 46 172 callsubr
        </CharString>
        <CharString name="dvKH_R">
          11 117 246 35 callsubr
        </CharString>
        <CharString name="dvKH_RA">
          172 604 622 20 callsubr
        </CharString>
        <CharString name="dvKH_SHA">
          503 117 246 rmoveto
          56 hlineto
          -39 callgsubr
          180 59 -444 -59 172 -36 callsubr
          -392 hlineto
          -95 callgsubr
          53 vhcurveto
          234 62 -213 -103 callgsubr
          428 530 102 callsubr
          -157 hlineto
          -18 callgsubr
          172 145 callgsubr
          59 -49 158 callgsubr
          -55 -31 callgsubr
        </CharString>
        <CharString name="dvKH_TA">
          380 812 28 callgsubr
          -832 -59 172 hlineto
          -4 callsubr
          424 239 callsubr
          -189 vlineto
          -62 callsubr
          -55 -41 callsubr
        </CharString>
        <CharString name="dvKH_VA">
          334 766 28 callgsubr
          -786 -76 callsubr
          394 -392 hlineto
          -26 -8 -8 -97 callgsubr
          -189 154 callsubr
          186 -41 callgsubr
          -208 142 callsubr
          19 13 5 12 7 hvcurveto
          -39 6 25 -19 46 hhcurveto
          63 -32 callgsubr
          563 59 vlineto
          endchar
        </CharString>
        <CharString name="dvKH_YA">
          445 733 -19 callsubr
          -897 -76 callsubr
          285 -42 callsubr
          -168 hlineto
          -18 callgsubr
          197 -41 callgsubr
          -219 142 callsubr
          17 15 3 10 10 hvcurveto
          -29 10 25 -14 39 hhcurveto
          -93 callgsubr
        </CharString>
        <CharString name="dvKHx">
          -3 126 -148 2 callgsubr
          235 443 rmoveto
          231 callsubr
          123 59 -106 -103 callgsubr
          -381 413 rmoveto
          -59 172 vlineto
          -4 callsubr
          254 59 hlineto
          endchar
        </CharString>
        <CharString name="dvKHxA">
          172 126 -148 2 callgsubr
          478 684 rmoveto
          -624 -59 172 hlineto
          26 5 -5 -26 hvcurveto
          -196 vlineto
          -26 -5 -5 -26 vhcurveto
          -35 166 -69 -392 -15 callgsubr
        </CharString>
        <CharString name="dvKHx_MA">
          493 126 -148 2 callgsubr
          673 494 rmoveto
          -88 131 88 hlineto
          -157 -365 -76 callgsubr
          301 249 rmoveto
          -963 -76 callsubr
          398 149 callsubr
          -147 154 callsubr
          197 -41 callgsubr
          -219 142 callsubr
          23 20 7 19 8 hvcurveto
          -17 13 22 -9 30 302 callsubr
          88 -373 69 -28 callsubr
        </CharString>
        <CharString name="dvKHx_R">
          11 155 -133 2 callgsubr
          -38 293 35 callsubr
        </CharString>
        <CharString name="dvKHx_RA">
          172 390 -130 2 callgsubr
          214 666 20 callsubr
        </CharString>
        <CharString name="dvKHx_SA">
          515 126 -148 2 callgsubr
          678 406 242 callsubr
          303 callsubr
          -967 -76 callsubr
          366 hlineto
          122 callgsubr
          -229 hlineto
          -18 callgsubr
          172 145 callgsubr
          59 -49 158 callgsubr
          -55 -23 callsubr
        </CharString>
        <CharString name="dvKHx_SHA">
          503 126 -148 2 callgsubr
          -9 308 rmoveto
          56 hlineto
          -39 callgsubr
          180 59 -444 -59 172 -36 callsubr
          -392 hlineto
          -95 callgsubr
          53 vhcurveto
          234 62 -213 -103 callgsubr
          428 530 102 callsubr
          -157 hlineto
          -18 callgsubr
          172 145 callgsubr
          59 -49 158 callgsubr
          -55 -31 callgsubr
        </CharString>
        <CharString name="dvKHx_TA">
          380 126 -148 2 callgsubr
          686 684 rmoveto
          -832 -59 172 hlineto
          -4 callsubr
          424 239 callsubr
          -189 vlineto
          -62 callsubr
          -55 -41 callsubr
        </CharString>
        <CharString name="dvKHx_VA">
          334 126 -148 2 callgsubr
          640 684 rmoveto
          -786 -76 callsubr
          394 -392 hlineto
          -26 -8 -8 -97 callgsubr
          -189 154 callsubr
          186 -41 callgsubr
          -208 142 callsubr
          19 13 5 12 7 hvcurveto
          -39 6 25 -19 46 hhcurveto
          63 -32 callgsubr
          563 59 vlineto
          endchar
        </CharString>
        <CharString name="dvKHx_YA">
          445 126 -148 2 callgsubr
          607 233 4 callgsubr
          -897 -76 callsubr
          285 -42 callsubr
          -168 hlineto
          -18 callgsubr
          197 -41 callgsubr
          -219 142 callsubr
          17 15 3 10 10 hvcurveto
          -29 10 25 -14 39 hhcurveto
          -93 callgsubr
        </CharString>
        <CharString name="dvK_CA">
          299 587 171 rmoveto
          -83 callgsubr
          -60 -103 callgsubr
          197 vlineto
          212 callgsubr
          40 59 -214 hlineto
          -60 callgsubr
          117 299 vlineto
          131 callgsubr
          -751 -59 239 -392 hlineto
          -26 -8 -8 -97 callgsubr
          -51 callsubr
          63 -32 callgsubr
          362 -35 callsubr
          79 249 callsubr
          -213 235 callgsubr
        </CharString>
        <CharString name="dvK_DA">
          273 320 455 119 callsubr
          273 -108 vlineto
          69 -59 rmoveto
          167 82 59 -732 -59 239 -392 vlineto
          -26 -8 -8 -97 callgsubr
          -51 callsubr
          63 -32 callgsubr
          362 -35 callsubr
          72 hlineto
          -52 callgsubr
          128 callgsubr
          20 callgsubr
          197 -106 callgsubr
          endchar
        </CharString>
        <CharString name="dvK_JA">
          426 714 233 callsubr
          -142 vlineto
          -60 callgsubr
          87 426 vlineto
          131 callgsubr
          -878 -59 239 -392 hlineto
          -26 -8 -8 -97 callgsubr
          -51 callsubr
          63 -32 callgsubr
          392 -35 callsubr
          71 205 callsubr
        </CharString>
        <CharString name="dvK_KA">
          428 552 207 callgsubr
          227 -74 callgsubr
          -192 hlineto
          -60 callgsubr
          87 264 vlineto
          308 hmoveto
          59 -880 -59 239 -392 vlineto
          -26 -8 -8 -97 callgsubr
          -51 callsubr
          63 -32 callgsubr
          392 -35 callsubr
          61 hlineto
          -3 -9 -2 -10 -10 vvcurveto
          -240 -90 callsubr
        </CharString>
        <CharString name="dvK_KHA">
          517 528 336 -80 callsubr
          -35 150 266 callgsubr
          117 209 174 callgsubr
          421 90 rmoveto
          -969 -59 239 -392 hlineto
          -26 -8 -8 -97 callgsubr
          -249 vlineto
          -53 26 -26 53 vhcurveto
          63 hlineto
          14 11 3 6 7 hvcurveto
          -87 69 362 vlineto
          26 8 8 26 vhcurveto
          71 -317 -15 callgsubr
        </CharString>
        <CharString name="dvK_LA">
          424 719 455 rmoveto
          18 callsubr
          -224 hlineto
          -60 callgsubr
          117 431 vlineto
          137 59 rmoveto
          -876 -59 239 -392 hlineto
          -26 -8 -8 -97 callgsubr
          -51 callsubr
          63 -32 callgsubr
          362 -35 callsubr
          72 hlineto
          -52 callgsubr
          -297 104 callsubr
          272 72 callgsubr
          -176 69 176 -106 callgsubr
          63 -396 69 563 68 hlineto
          endchar
        </CharString>
        <CharString name="dvK_MA">
          465 753 432 44 callsubr
          -365 -76 callgsubr
          -251 59 97 callgsubr
          140 283 -131 vlineto
          326 190 rmoveto
          -917 -59 239 -392 hlineto
          -26 -8 -8 -97 callgsubr
          -51 callsubr
          63 -32 callgsubr
          339 -35 callsubr
          72 55 callgsubr
        </CharString>
        <CharString name="dvK_NA">
          422 710 455 rmoveto
          -390 hlineto
          -60 callgsubr
          117 422 vlineto
          -157 44 callgsubr
          197 19 callsubr
          301 226 rmoveto
          -874 -59 239 -392 hlineto
          -26 -8 -8 -97 callgsubr
          -51 callsubr
          63 -32 callgsubr
          362 -35 callsubr
          72 hlineto
          -52 callgsubr
          128 callgsubr
          71 -104 callgsubr
          239 88 -396 69 -28 callsubr
        </CharString>
        <CharString name="dvK_NNA">
          426 558 168 -23 callgsubr
          -238 67 callgsubr
          465 167 rmoveto
          -878 -59 239 -392 hlineto
          -26 -8 -8 -97 callgsubr
          -51 callsubr
          63 -32 callgsubr
          362 -35 callsubr
          71 -239 hlineto
          -30 callsubr
          406 87 276 callsubr
        </CharString>
        <CharString name="dvK_PA">
          279 574 -47 callgsubr
          -254 -108 119 callsubr
          112 -108 vlineto
          318 167 rmoveto
          -738 -59 239 -392 hlineto
          -26 -8 -8 -97 callgsubr
          -51 callsubr
          63 -32 callgsubr
          362 -35 callsubr
          78 -239 57 callgsubr
        </CharString>
        <CharString name="dvK_PHA">
          443 567 46 callgsubr
          482 108 rmoveto
          59 -895 -59 239 -392 vlineto
          -26 -8 -8 -97 callgsubr
          -51 callsubr
          63 -32 callgsubr
          362 -35 callsubr
          71 -239 hlineto
          -100 callsubr
        </CharString>
        <CharString name="dvK_P_RA">
          279 567 9 callgsubr
          -247 67 callgsubr
          318 167 rmoveto
          -731 -59 239 -392 hlineto
          -26 -8 -8 -97 callgsubr
          -51 callsubr
          63 -32 callgsubr
          362 -35 callsubr
          71 -209 hlineto
          0 callgsubr
        </CharString>
        <CharString name="dvK_R">
          0 462 269 callsubr
          -482 -59 239 -362 vlineto
          -83 callgsubr
          -40 70 callsubr
          128 callgsubr
          16 57 callsubr
          362 -35 callsubr
          140 59 -142 201 callsubr
        </CharString>
        <CharString name="dvK_RA">
          95 527 269 callsubr
          -547 -59 239 -362 vlineto
          -83 callgsubr
          -40 70 callsubr
          128 callgsubr
          11 callgsubr
        </CharString>
        <CharString name="dvK_SA">
          444 733 344 242 callsubr
          -163 -188 42 callsubr
          306 90 rmoveto
          -896 -59 239 -392 hlineto
          -26 -8 -8 -97 callgsubr
          -249 vlineto
          -53 26 -26 53 vhcurveto
          63 hlineto
          14 11 3 6 7 hvcurveto
          -87 69 362 vlineto
          26 8 8 26 vhcurveto
          71 -317 hlineto
          23 callgsubr
        </CharString>
        <CharString name="dvK_SHA">
          432 474 623 64 callgsubr
          266 callgsubr
          198 60 59 -368 -59 239 -392 vlineto
          -26 -8 -8 -97 callgsubr
          -249 97 callsubr
          197 vlineto
          53 -26 26 -53 vhcurveto
          160 -1 rmoveto
          261 callgsubr
          75 59 vlineto
          endchar
        </CharString>
        <CharString name="dvK_SS">
          6 149 537 rmoveto
          118 callsubr
          -143 -99 callgsubr
          -39 222 callgsubr
          302 -88 rmoveto
          57 -139 vlineto
          -29 callgsubr
          endchar
        </CharString>
        <CharString name="dvK_SSA">
          130 251 394 rmoveto
          -26 -5 -5 -26 vhcurveto
          -39 hlineto
          -26 -6 5 26 hvcurveto
          143 vlineto
          26 5 5 26 vhcurveto
          40 hlineto
          26 5 -5 -26 hvcurveto
          311 85 rmoveto
          -144 -259 -106 hlineto
          -29 callgsubr
          288 -306 236 callsubr
        </CharString>
        <CharString name="dvK_SS_MA">
          493 781 432 44 callsubr
          -365 -76 callgsubr
          -348 21 43 callgsubr
          674 85 rmoveto
          -559 -59 233 -131 -99 hlineto
          -50 -26 -23 -46 -3 hvcurveto
          -109 hlineto
          74 callsubr
          -119 214 callsubr
        </CharString>
        <CharString name="dvK_SS_M_YA">
          722 1010 -53 callsubr
          -330 28 43 callgsubr
          903 85 rmoveto
          -788 -59 215 -138 -81 hlineto
          -47 -26 -20 -42 -5 hvcurveto
          -110 hlineto
          74 callsubr
          -149 hlineto
          -26 callgsubr
        </CharString>
        <CharString name="dvK_SS_VA">
          307 251 394 43 callgsubr
          488 85 rmoveto
          -346 -59 202 -392 hlineto
          -26 -8 -8 -97 callgsubr
          -43 -109 vlineto
          74 callsubr
          -149 57 callgsubr
        </CharString>
        <CharString name="dvK_SS_YA">
          402 690 -85 callgsubr
          -439 -158 -80 callsubr
          -39 222 callgsubr
          132 vlineto
          118 callsubr
          583 85 rmoveto
          -442 -59 94 hlineto
          -64 callgsubr
          -189 hlineto
          5 5 3 8 13 vvcurveto
          148 -98 callgsubr
          -82 -88 callsubr
          -148 vlineto
          -14 3 -8 6 -5 vhcurveto
          -44 -6 -15 -34 -51 vvcurveto
          -125 182 callsubr
          18 12 4 11 7 hvcurveto
          -93 69 221 -69 -45 269 callgsubr
          -76 -103 callgsubr
          107 vlineto
          37 -102 callgsubr
          291 -160 hlineto
          -92 callgsubr
        </CharString>
        <CharString name="dvK_S_DDA">
          612 733 -35 callgsubr
          254 -78 -73 -88 callsubr
          -163 -31 42 callsubr
          384 -106 300 callsubr
          -1064 -59 239 -392 vlineto
          -26 -8 -8 -97 callgsubr
          12 callgsubr
          86 -104 callgsubr
          132 -69 -121 -89 callsubr
          195 274 vlineto
          -34 9 25 -16 42 hhcurveto
          158 callsubr
          75 -69 -86 -98 callsubr
          85 -104 callgsubr
          136 -98 callgsubr
          -52 -103 callgsubr
          70 -106 callgsubr
          endchar
        </CharString>
        <CharString name="dvK_S_P_LA">
          947 1242 485 rmoveto
          83 callgsubr
          395 431 vlineto
          -615 -219 rmoveto
          -79 callsubr
          111 -219 hlineto
          -172 31 42 callsubr
          809 90 rmoveto
          -1399 -59 239 -392 hlineto
          -26 -8 -8 -97 callgsubr
          12 callgsubr
          86 -104 callgsubr
          132 -69 -121 -89 callsubr
          195 280 182 callgsubr
          -75 callsubr
          -8 -62 callgsubr
          -426 69 563 68 hlineto
          endchar
        </CharString>
        <CharString name="dvK_S_P_RA">
          630 918 9 callgsubr
          -291 -219 rmoveto
          -79 callsubr
          113 -219 hlineto
          -174 31 42 callsubr
          492 90 rmoveto
          -1082 -59 239 -392 hlineto
          -26 -8 -8 -97 callgsubr
          12 callgsubr
          86 -104 callgsubr
          132 -69 -121 -89 callsubr
          195 282 -98 76 callgsubr
        </CharString>
        <CharString name="dvK_S_TA">
          659 947 485 rmoveto
          255 callsubr
          -62 -116 vlineto
          -79 callsubr
          316 hlineto
          -377 -188 42 callsubr
          521 90 rmoveto
          -1111 -59 239 -392 hlineto
          -26 -8 -8 -97 callgsubr
          12 callgsubr
          86 -104 callgsubr
          132 -69 -121 -89 callsubr
          195 281 -206 -41 callsubr
        </CharString>
        <CharString name="dvK_S_TTA">
          600 733 -35 callgsubr
          260 -78 -79 -88 callsubr
          -163 -31 42 callsubr
          390 -106 300 callgsubr
          -1052 -59 239 -392 vlineto
          -26 -8 -8 -97 callgsubr
          12 callgsubr
          86 -104 callgsubr
          132 -69 -121 -89 callsubr
          195 271 75 callgsubr
        </CharString>
        <CharString name="dvK_TA">
          115 547 269 callsubr
          -567 -59 259 -87 vlineto
          6 -7 -11 3 -14 hhcurveto
          -202 -59 71 hlineto
          -7 -7 -4 -11 -16 vvcurveto
          -235 -98 callsubr
          55 59 -67 callgsubr
          227 73 callgsubr
          26 8 -8 -26 hvcurveto
          -392 -101 callgsubr
        </CharString>
        <CharString name="dvK_THA">
          374 806 28 callgsubr
          -144 -451 hlineto
          -88 callgsubr
          125 32 -38 callgsubr
          -153 hlineto
          -60 callgsubr
          220 54 59 -362 -59 239 -392 vlineto
          -26 -8 -8 -97 callgsubr
          -51 callsubr
          63 -32 callgsubr
          259 -35 callsubr
          71 -136 hlineto
          -92 callgsubr
        </CharString>
        <CharString name="dvK_TTA">
          270 320 485 97 callgsubr
          87 263 -78 vlineto
          69 -59 rmoveto
          137 82 59 -722 -59 239 -392 vlineto
          -26 -8 -8 -97 callgsubr
          -249 vlineto
          -53 26 -26 53 vhcurveto
          63 hlineto
          14 11 3 6 7 hvcurveto
          -87 69 392 vlineto
          26 8 8 26 vhcurveto
          72 hlineto
          -1 -6 0 -7 -7 vvcurveto
          -1 callsubr
          endchar
        </CharString>
        <CharString name="dvK_T_RA">
          281 570 263 rmoveto
          -8 hlineto
          -77 154 rlineto
          48 -24 -22 20 -58 hhcurveto
          -61 hlineto
          -60 callgsubr
          87 282 vlineto
          303 callsubr
          -733 -59 239 -392 hlineto
          -26 -8 -8 -97 callgsubr
          -51 callsubr
          63 -32 callgsubr
          392 -35 callsubr
          48 hlineto
          204 callgsubr
          75 hlineto
          endchar
        </CharString>
        <CharString name="dvK_T_VA">
          453 741 143 callgsubr
          -381 hlineto
          -60 callgsubr
          117 453 vlineto
          131 callgsubr
          -905 -59 239 -392 hlineto
          -26 -8 -8 -97 callgsubr
          -51 callsubr
          63 -32 callgsubr
          362 -35 callsubr
          72 hlineto
          -52 callgsubr
          -297 15 callgsubr
          272 vlineto
          26 5 5 26 vhcurveto
          75 hlineto
          -52 callgsubr
          -219 79 callsubr
        </CharString>
        <CharString name="dvK_T_YA">
          603 891 -69 callsubr
          176 32 -70 callgsubr
          113 -22 callsubr
          -571 -160 97 callgsubr
          169 399 252 callgsubr
          -1055 -59 239 -392 hlineto
          -26 -8 -8 -97 callgsubr
          -51 callsubr
          63 -32 callgsubr
          310 -35 callsubr
          97 hlineto
          -52 callgsubr
          -245 -16 callgsubr
        </CharString>
        <CharString name="dvK_VA">
          279 567 143 callgsubr
          -207 hlineto
          -60 callgsubr
          117 279 vlineto
          131 callgsubr
          -731 -59 239 -392 hlineto
          -26 -8 -8 -97 callgsubr
          -51 callsubr
          63 -32 callgsubr
          362 -35 callsubr
          72 hlineto
          -52 callgsubr
          -219 79 callsubr
        </CharString>
        <CharString name="dvK_V_YA">
          548 836 -85 callgsubr
          -343 -426 -58 callsubr
          227 -74 callgsubr
          -207 hlineto
          -60 callgsubr
          87 344 199 callgsubr
          -1000 -59 239 -392 hlineto
          -26 -8 -8 -97 callgsubr
          -51 callsubr
          63 -32 callgsubr
          392 -35 callsubr
          74 hlineto
          -2 -8 -1 -8 -9 vvcurveto
          -244 -98 callsubr
          63 hlineto
          21 19 6 15 10 hvcurveto
          -14 13 20 245 callgsubr
        </CharString>
        <CharString name="dvK_YA">
          369 657 -85 callgsubr
          -337 -189 97 callgsubr
          198 165 vlineto
          -64 callgsubr
          333 248 rmoveto
          -821 -59 239 -392 hlineto
          -26 -8 -8 -97 callgsubr
          -51 callsubr
          63 -32 callgsubr
          281 -35 callsubr
          66 -158 hlineto
          -92 callgsubr
        </CharString>
        <CharString name="dvKx">
          -60 52 -56 2 callgsubr
          389 533 rmoveto
          59 -461 -59 239 -392 vlineto
          -26 -8 -8 -97 callgsubr
          -51 callsubr
          63 -32 callgsubr
          362 -35 callsubr
          119 59 -121 201 callsubr
        </CharString>
        <CharString name="dvKxA">
          95 52 -56 2 callgsubr
          475 533 rmoveto
          59 -547 -59 239 -392 vlineto
          -26 -8 -8 -97 callgsubr
          -249 -90 callsubr
        </CharString>
        <CharString name="dvKx_BA">
          315 98 -86 2 callgsubr
          389 426 rmoveto
          76 59 -243 hlineto
          -60 callgsubr
          87 315 -238 vlineto
          150 callgsubr
          -767 -59 239 -392 hlineto
          -26 -8 -8 -97 callgsubr
          -51 callsubr
          63 -32 callgsubr
          392 -35 callsubr
          72 hlineto
          -52 callgsubr
          221 callsubr
        </CharString>
        <CharString name="dvKx_KxA">
          428 85 -87 2 callgsubr
          340 -86 2 callgsubr
          127 172 rmoveto
          -83 callgsubr
          -40 -103 callgsubr
          227 -74 callgsubr
          -192 hlineto
          -60 callgsubr
          87 264 vlineto
          308 hmoveto
          59 -880 -59 239 -392 vlineto
          -26 -8 -8 -97 callgsubr
          -51 callsubr
          63 -32 callgsubr
          392 -35 callsubr
          61 hlineto
          -3 -9 -2 -10 -10 vvcurveto
          -240 -90 callsubr
        </CharString>
        <CharString name="dvKx_MA">
          465 98 -86 2 callgsubr
          655 432 44 callsubr
          -365 -76 callgsubr
          -251 59 97 callgsubr
          140 283 -131 vlineto
          326 190 rmoveto
          -917 -59 239 -392 hlineto
          -26 -8 -8 -97 callgsubr
          -51 callsubr
          63 -32 callgsubr
          339 -35 callsubr
          72 55 callgsubr
        </CharString>
        <CharString name="dvKx_PHA">
          443 98 -86 2 callgsubr
          469 46 callgsubr
          482 108 rmoveto
          59 -895 -59 239 -392 vlineto
          -26 -8 -8 -97 callgsubr
          -51 callsubr
          63 -32 callgsubr
          362 -35 callsubr
          71 -239 hlineto
          -100 callsubr
        </CharString>
        <CharString name="dvKx_PHxA">
          443 98 -86 2 callgsubr
          351 -86 2 callgsubr
          118 46 callgsubr
          482 108 rmoveto
          59 -895 -59 239 -392 vlineto
          -26 -8 -8 -97 callgsubr
          -51 callsubr
          63 -32 callgsubr
          362 -35 callsubr
          71 -239 hlineto
          -100 callsubr
        </CharString>
        <CharString name="dvKx_R">
          0 164 -128 2 callgsubr
          298 605 rmoveto
          59 -482 -59 239 -362 vlineto
          -83 callgsubr
          -40 70 callsubr
          128 callgsubr
          16 57 callsubr
          362 -35 callsubr
          140 59 -142 201 callsubr
        </CharString>
        <CharString name="dvKx_RA">
          95 157 -133 2 callgsubr
          370 610 rmoveto
          59 -547 -59 239 -362 vlineto
          -83 callgsubr
          -40 70 callsubr
          128 callgsubr
          11 callgsubr
        </CharString>
        <CharString name="dvKx_TA">
          312 98 -86 2 callgsubr
          499 455 rmoveto
          -277 hlineto
          -60 callgsubr
          117 309 vlineto
          131 callgsubr
          -761 -59 239 -392 hlineto
          -26 -8 -8 -97 callgsubr
          -51 callsubr
          63 -32 callgsubr
          362 -35 callsubr
          72 hlineto
          -52 callgsubr
          -297 15 callgsubr
          272 211 callgsubr
          -396 236 callsubr
        </CharString>
        <CharString name="dvL">
          -96 403 28 callgsubr
          -423 -59 423 hlineto
          -207 -78 rmoveto
          -72 -88 callsubr
          -327 -43 callgsubr
          95 59 -112 hlineto
          -78 callsubr
          endchar
        </CharString>
        <CharString name="dvLA">
          76 508 28 callgsubr
          -528 -59 391 -78 -80 hlineto
          -96 callgsubr
          -206 69 206 vlineto
          26 5 5 26 vhcurveto
          63 -426 69 563 68 hlineto
          endchar
        </CharString>
        <CharString name="dvLL">
          111 563 28 callgsubr
          -603 -59 603 hlineto
          -154 -78 rmoveto
          -99 hlineto
          31 callsubr
          10 -90 rmoveto
          -227 vlineto
          81 callsubr
          -192 hmoveto
          -227 vlineto
          81 callsubr
          endchar
        </CharString>
        <CharString name="dvLLA">
          111 419 168 78 callgsubr
          -192 -227 78 callgsubr
          336 168 rmoveto
          59 -603 -59 363 -78 -13 vlineto
          31 callsubr
          -17 78 hlineto
          endchar
        </CharString>
        <CharString name="dvLL_YA">
          539 419 168 78 callgsubr
          -192 -227 78 callgsubr
          83 90 rmoveto
          31 callsubr
          418 -314 4 callgsubr
          -1011 -59 663 153 callgsubr
          158 -87 callsubr
          vlineto
          endchar
        </CharString>
        <CharString name="dvL_BA">
          291 469 137 193 callsubr
          -743 -59 599 168 callgsubr
          -248 hlineto
          -96 callgsubr
          -206 69 206 vlineto
          26 5 5 26 vhcurveto
          62 hlineto
          -52 callgsubr
          221 callsubr
        </CharString>
        <CharString name="dvL_BHA">
          443 329 28 callgsubr
          -349 -59 349 hlineto
          220 63 callgsubr
          326 280 160 callgsubr
          -258 vlineto
          -68 callgsubr
          -243 104 callsubr
          218 72 callgsubr
          -152 69 152 -106 callgsubr
          64 hlineto
          -52 callgsubr
          -165 -79 callgsubr
          185 113 -342 69 -28 callsubr
        </CharString>
        <CharString name="dvL_DA">
          249 606 129 callgsubr
          75 59 -701 -59 557 -78 -246 vlineto
          -96 callgsubr
          -206 69 206 vlineto
          26 5 5 26 vhcurveto
          62 hlineto
          -52 callgsubr
          -249 -21 callgsubr
        </CharString>
        <CharString name="dvL_DDA">
          248 590 267 callgsubr
          -700 -59 541 -78 -230 vlineto
          -96 callgsubr
          -206 69 206 vlineto
          26 5 5 26 vhcurveto
          62 hlineto
          -52 callgsubr
          10 callsubr
        </CharString>
        <CharString name="dvL_DDHA">
          281 598 129 callgsubr
          115 59 -733 -59 549 -78 -238 vlineto
          -96 callgsubr
          -206 69 206 vlineto
          26 5 5 26 vhcurveto
          64 hlineto
          -52 callgsubr
          -25 callsubr
          endchar
        </CharString>
        <CharString name="dvL_D_RA">
          249 606 129 callgsubr
          75 59 -701 -59 557 -78 -246 vlineto
          -96 callgsubr
          -206 69 206 vlineto
          26 5 5 26 vhcurveto
          62 hlineto
          -52 callgsubr
          49 callsubr
        </CharString>
        <CharString name="dvL_GA">
          434 469 186 rmoveto
          106 callsubr
          -106 callgsubr
          80 -209 hlineto
          -105 callsubr
          348 436 rmoveto
          -886 -59 569 -78 -258 hlineto
          -96 callgsubr
          -207 69 207 -106 callgsubr
          62 hlineto
          -52 callgsubr
          -200 -45 callgsubr
          357 235 callsubr
        </CharString>
        <CharString name="dvL_HA">
          265 622 297 callsubr
          -727 -59 573 -78 -262 vlineto
          -96 callgsubr
          -206 69 206 vlineto
          26 5 5 26 vhcurveto
          62 hlineto
          -52 callgsubr
          58 callgsubr
          -158 -98 callsubr
          184 59 -163 -49 callsubr
          endchar
        </CharString>
        <CharString name="dvL_JA">
          402 834 28 callgsubr
          -854 -59 710 64 callsubr
          -147 vlineto
          -96 callgsubr
          -206 69 206 192 callsubr
          205 callsubr
        </CharString>
        <CharString name="dvL_JxA">
          404 447 -86 2 callgsubr
          389 28 callgsubr
          -856 -59 712 64 callsubr
          -149 vlineto
          -96 callgsubr
          -206 69 206 vlineto
          26 5 5 26 vhcurveto
          63 205 callsubr
        </CharString>
        <CharString name="dvL_KA">
          421 853 269 callsubr
          -873 -59 565 90 callsubr
          -214 hlineto
          -96 callgsubr
          -206 69 206 vlineto
          26 5 5 26 vhcurveto
          64 hlineto
          -1 -6 0 -7 -7 vvcurveto
          -249 -90 callsubr
        </CharString>
        <CharString name="dvL_KHA">
          495 927 28 callgsubr
          -947 -59 495 -33 callsubr
          180 -149 hlineto
          -96 callgsubr
          -206 69 206 vlineto
          26 5 5 26 vhcurveto
          63 -347 -15 callgsubr
        </CharString>
        <CharString name="dvL_K_YA">
          695 983 -85 callgsubr
          -337 -189 97 callgsubr
          198 165 vlineto
          -64 callgsubr
          333 248 rmoveto
          -1147 -59 565 -6 callgsubr
          -214 hlineto
          -96 callgsubr
          -206 69 206 vlineto
          26 5 5 26 vhcurveto
          64 hlineto
          66 callsubr
          281 -35 callsubr
          66 -158 hlineto
          -92 callgsubr
        </CharString>
        <CharString name="dvL_LA">
          400 832 28 callgsubr
          -852 -59 715 258 callgsubr
          -229 hlineto
          -96 callgsubr
          -206 69 206 vlineto
          26 5 5 26 vhcurveto
          62 hlineto
          -52 callgsubr
          -327 -62 callgsubr
          -426 69 563 68 hlineto
          endchar
        </CharString>
        <CharString name="dvL_L_YA">
          678 966 -69 callsubr
          196 32 -70 callgsubr
          93 -22 callsubr
          131 callgsubr
          -1130 -59 782 hlineto
          -25 callgsubr
          -77 224 callgsubr
          -231 hlineto
          -68 callgsubr
          69 callsubr
          64 hlineto
          -52 callgsubr
          69 callsubr
          63 -207 hlineto
          -92 callgsubr
        </CharString>
        <CharString name="dvL_MA">
          443 731 432 44 callsubr
          -365 -76 callgsubr
          326 249 rmoveto
          -895 -59 569 -131 220 callgsubr
          -274 104 callsubr
          249 72 callgsubr
          -183 69 183 -106 callgsubr
          64 55 callgsubr
        </CharString>
        <CharString name="dvL_PA">
          255 543 -47 callgsubr
          131 callgsubr
          -707 -59 389 -78 -78 hlineto
          -96 callgsubr
          -206 69 206 192 callsubr
          -269 57 callgsubr
        </CharString>
        <CharString name="dvL_PHA">
          419 543 -47 callgsubr
          308 hmoveto
          59 -871 -59 389 -78 -78 vlineto
          -96 callgsubr
          -206 69 206 192 callsubr
          -269 hlineto
          -100 callsubr
        </CharString>
        <CharString name="dvL_SA">
          422 711 344 242 callsubr
          303 callsubr
          -874 -59 537 hlineto
          -71 callgsubr
          141 -149 hlineto
          -96 callgsubr
          -206 69 206 vlineto
          26 5 5 26 vhcurveto
          63 -347 hlineto
          23 callgsubr
        </CharString>
        <CharString name="dvL_TA">
          287 719 28 callgsubr
          -739 -59 595 -78 -284 hlineto
          -96 callgsubr
          -206 69 206 vlineto
          26 5 5 26 vhcurveto
          64 hlineto
          -52 callgsubr
          54 callsubr
        </CharString>
        <CharString name="dvL_THA">
          343 332 28 callgsubr
          -352 -59 352 hlineto
          443 59 rmoveto
          -144 -451 9 callsubr
          149 -91 callsubr
        </CharString>
        <CharString name="dvL_TH_YA">
          612 332 28 callgsubr
          -352 -59 352 hlineto
          568 -392 4 callgsubr
          -413 -59 65 -42 callsubr
          -203 9 callsubr
          163 -2 callgsubr
          -93 callgsubr
        </CharString>
        <CharString name="dvL_TTA">
          238 598 426 300 callgsubr
          -690 -59 549 -78 -238 vlineto
          -96 callgsubr
          -206 69 206 vlineto
          26 5 5 26 vhcurveto
          64 hlineto
          -52 callgsubr
          -1 callsubr
          endchar
        </CharString>
        <CharString name="dvL_TTHA">
          272 567 90 17 callgsubr
          -724 -59 489 -78 -178 vlineto
          -96 callgsubr
          -206 69 206 vlineto
          26 5 5 26 vhcurveto
          64 hlineto
          -52 callgsubr
          -26 callsubr
          107 -104 callgsubr
          137 callsubr
        </CharString>
        <CharString name="dvL_VA">
          257 689 28 callgsubr
          -709 -59 565 -6 callgsubr
          -214 hlineto
          -96 callgsubr
          -206 69 206 vlineto
          26 5 5 26 vhcurveto
          64 hlineto
          120 callsubr
        </CharString>
        <CharString name="dvL_V_DDA">
          436 778 267 callgsubr
          -888 -59 729 -78 -73 vlineto
          101 callsubr
          85 -69 -4 vlineto
          -83 callgsubr
          -40 -103 callgsubr
          227 -74 callgsubr
          -214 hlineto
          -96 callgsubr
          -206 69 206 vlineto
          26 5 5 26 vhcurveto
          64 hlineto
          8 callgsubr
          -8 -98 callsubr
          85 -104 callgsubr
          136 -98 callgsubr
          -52 -103 callgsubr
          70 -106 callgsubr
          endchar
        </CharString>
        <CharString name="dvL_YA">
          387 640 -69 callsubr
          196 32 -70 callgsubr
          93 -22 callsubr
          131 callgsubr
          -804 -59 456 hlineto
          -25 callgsubr
          -77 224 callgsubr
          -72 hlineto
          -53 -26 -26 -53 hvcurveto
          69 callsubr
          63 -207 hlineto
          -92 callgsubr
        </CharString>
        <CharString name="dvM">
          -72 213 198 -76 callgsubr
          212 190 rmoveto
          59 -445 -59 233 -131 229 callgsubr
          -166 vlineto
          273 callgsubr
          143 59 -143 131 vlineto
          endchar
        </CharString>
        <CharString name="dvMA">
          107 395 432 44 callsubr
          -365 -76 callgsubr
          326 249 rmoveto
          -559 -59 233 149 callsubr
          79 callgsubr
        </CharString>
        <CharString name="dvM_BA">
          309 481 426 rmoveto
          76 59 -91 155 callgsubr
          315 173 callsubr
          -70 -149 -77 callsubr
          -350 61 -76 callgsubr
          528 249 rmoveto
          -761 -59 233 149 callsubr
          -166 vlineto
          273 callgsubr
          105 -216 160 callsubr
        </CharString>
        <CharString name="dvM_BHA">
          459 565 168 rmoveto
          -26 -5 -5 -26 vhcurveto
          -47 hlineto
          -26 -5 5 26 hvcurveto
          143 24 callgsubr
          -165 -79 callgsubr
          185 113 -342 69 -28 callsubr
        </CharString>
        <CharString name="dvM_BH_RA">
          459 565 218 rmoveto
          -26 -5 -5 -26 vhcurveto
          -47 hlineto
          -26 -5 5 26 hvcurveto
          93 24 callgsubr
          -115 vlineto
          -53 26 -26 53 vhcurveto
          178 callgsubr
        </CharString>
        <CharString name="dvM_BH_VA">
          625 565 90 callgsubr
          -352 -174 -48 callgsubr
          844 280 rmoveto
          -375 -59 231 -392 hlineto
          -26 -8 -8 -97 callgsubr
          -5 -105 142 vlineto
          49 callgsubr
          63 -87 callsubr
          vlineto
          endchar
        </CharString>
        <CharString name="dvM_BH_YA">
          720 1008 169 callsubr
          -443 63 callgsubr
          -352 -174 -48 callgsubr
          939 280 rmoveto
          -470 -59 122 hlineto
          -25 callgsubr
          -99 -99 callgsubr
          -185 142 hlineto
          49 callgsubr
          158 -87 callsubr
          vlineto
          endchar
        </CharString>
        <CharString name="dvM_B_RA">
          309 481 426 rmoveto
          76 59 -91 155 callgsubr
          315 270 callsubr
          -70 -135 215 callsubr
          -350 31 -76 callgsubr
          528 249 rmoveto
          -761 -59 233 149 callsubr
          -166 vlineto
          273 callgsubr
          105 -186 vlineto
          -53 26 -26 53 vhcurveto
          52 -46 callsubr
        </CharString>
        <CharString name="dvM_B_YA">
          578 866 -85 callgsubr
          -379 -426 -77 callsubr
          -281 426 rmoveto
          380 170 callgsubr
          -43 -26 -17 -36 -7 hvcurveto
          -108 hlineto
          -69 -234 -76 callgsubr
          797 249 rmoveto
          -1030 -59 233 149 callsubr
          -166 vlineto
          273 callgsubr
          105 -216 167 callsubr
        </CharString>
        <CharString name="dvM_DA">
          267 282 432 rmoveto
          131 273 -78 -89 vlineto
          -43 -26 -17 -36 -7 hvcurveto
          -177 -234 -76 callgsubr
          411 53 rmoveto
          137 75 59 -719 -59 233 -131 229 callgsubr
          -166 vlineto
          273 callgsubr
          105 -216 -21 callgsubr
        </CharString>
        <CharString name="dvM_HA">
          283 282 432 rmoveto
          131 289 -78 -105 vlineto
          -43 -26 -17 -36 -7 hvcurveto
          -177 -234 -76 callgsubr
          427 53 rmoveto
          137 85 59 -745 -59 233 -131 229 callgsubr
          -166 vlineto
          273 callgsubr
          105 -41 -84 callsubr
          -158 -98 callsubr
          184 59 -163 -49 callsubr
          endchar
        </CharString>
        <CharString name="dvM_LA">
          418 713 485 rmoveto
          140 callgsubr
          -43 -26 -17 -36 -7 hvcurveto
          -108 131 431 hlineto
          -500 -365 -76 callgsubr
          637 249 rmoveto
          -870 -59 233 149 callsubr
          -166 vlineto
          273 callgsubr
          105 -294 -62 callgsubr
          -426 69 563 68 hlineto
          endchar
        </CharString>
        <CharString name="dvM_MA">
          459 747 432 44 callsubr
          -365 -76 callgsubr
          -283 190 rmoveto
          283 -131 -283 hlineto
          -69 -234 -76 callgsubr
          678 249 rmoveto
          -911 -59 233 149 callsubr
          -166 vlineto
          273 callgsubr
          228 callgsubr
          79 callgsubr
        </CharString>
        <CharString name="dvM_NA">
          416 704 485 rmoveto
          -238 155 callgsubr
          422 hlineto
          -157 -395 -91 callgsubr
          -334 -228 -76 callgsubr
          635 249 rmoveto
          -868 -59 233 149 callsubr
          -166 vlineto
          273 callgsubr
          105 -216 35 callgsubr
        </CharString>
        <CharString name="dvM_PA">
          273 561 -47 callgsubr
          -279 -131 rmoveto
          131 105 -131 vlineto
          -174 -234 -76 callgsubr
          492 249 rmoveto
          -725 -59 233 149 callsubr
          -166 vlineto
          273 callgsubr
          105 -216 79 callsubr
        </CharString>
        <CharString name="dvM_P_RA">
          273 561 9 callgsubr
          -279 -131 rmoveto
          131 105 -131 vlineto
          -174 -234 -76 callgsubr
          492 249 rmoveto
          -725 -59 233 149 callsubr
          -166 vlineto
          273 callgsubr
          105 -186 76 callgsubr
        </CharString>
        <CharString name="dvM_R">
          -16 218 -50 rmoveto
          197 219 rlineto
          92 vlineto
          -282 -311 rlineto
          80 268 -82 callsubr
          124 -106 callgsubr
          78 hlineto
          69 59 rmoveto
          131 133 59 -435 -59 233 -131 229 callgsubr
          -146 -79 callgsubr
          166 134 59 vlineto
          endchar
        </CharString>
        <CharString name="dvM_RA">
          107 395 432 44 callsubr
          -345 -82 callsubr
          124 -106 callgsubr
          78 hlineto
          326 249 rmoveto
          -559 -59 233 149 callsubr
          -146 -79 callgsubr
          166 113 -134 10 callgsubr
        </CharString>
        <CharString name="dvM_SA">
          438 727 344 242 callsubr
          -163 -188 210 callgsubr
          -174 108 251 -92 callsubr
          -351 -334 -82 callsubr
          167 -106 callgsubr
          78 hlineto
          657 226 rmoveto
          -890 -59 233 -108 156 callgsubr
          -189 -79 callgsubr
          209 105 -317 -23 callsubr
        </CharString>
        <CharString name="dvM_SHA">
          426 213 198 rmoveto
          -26 -5 -5 -26 vhcurveto
          -47 91 callsubr
          78 hlineto
          255 264 rmoveto
          -104 callsubr
          -45 69 34 -59 callsubr
          91 -174 145 64 59 -366 -59 233 -145 156 callgsubr
          -152 -79 callgsubr
          172 105 -280 -31 callgsubr
        </CharString>
        <CharString name="dvM_TA">
          303 591 485 rmoveto
          -125 155 callgsubr
          309 hlineto
          -378 -365 -76 callgsubr
          522 249 rmoveto
          -755 -59 233 149 callsubr
          -166 vlineto
          273 callgsubr
          105 -294 -41 callsubr
        </CharString>
        <CharString name="dvM_VA">
          273 561 207 callgsubr
          227 -74 callgsubr
          -55 155 callgsubr
          279 hlineto
          -348 -365 -76 callgsubr
          492 249 rmoveto
          -725 -59 233 149 callsubr
          -166 vlineto
          273 callgsubr
          105 -216 79 callsubr
        </CharString>
        <CharString name="dvM_YA">
          336 624 -53 callsubr
          573 256 rmoveto
          -788 -59 215 265 callgsubr
          -189 vlineto
          -26 callgsubr
        </CharString>
        <CharString name="dvN">
          -115 195 426 rmoveto
          -258 153 callsubr
          227 -106 callgsubr
          -100 -269 277 callgsubr
          269 119 59 -269 293 callgsubr
          403 59 vlineto
          endchar
        </CharString>
        <CharString name="dvNA">
          64 195 -10 callsubr
          -516 -59 372 -78 -238 hlineto
          185 callsubr
        </CharString>
        <CharString name="dvNG">
          -61 131 -61 96 callsubr
          66 369 2 callgsubr
          -293 228 rmoveto
          -59 232 -78 -73 vlineto
          -53 -26 -26 -53 hvcurveto
          -77 callgsubr
          121 137 90 59 hlineto
          endchar
        </CharString>
        <CharString name="dvNGA">
          -61 273 308 2 callgsubr
          -293 228 rmoveto
          -59 232 -78 -73 vlineto
          -53 -26 -26 -53 hvcurveto
          -77 callgsubr
          121 137 90 59 hlineto
          endchar
        </CharString>
        <CharString name="dvNG_RA">
          -61 273 308 2 callgsubr
          -293 228 rmoveto
          -59 232 -78 -73 vlineto
          82 callsubr
          -47 21 -26 42 -5 vhcurveto
          -75 -141 15 callsubr
          -74 142 rlineto
          38 6 19 26 45 vvcurveto
          136 -98 callgsubr
          -52 -103 callgsubr
          70 -106 callgsubr
          121 137 90 59 hlineto
          endchar
        </CharString>
        <CharString name="dvNN">
          -101 210 168 -23 callgsubr
          134 59 rmoveto
          -364 71 callsubr
          65 vlineto
          endchar
        </CharString>
        <CharString name="dvNNA">
          78 210 168 -23 callgsubr
          300 59 rmoveto
          -530 71 callsubr
          87 276 callsubr
        </CharString>
        <CharString name="dvNN_DDA">
          254 210 168 -23 callgsubr
          386 -137 300 callsubr
          -706 -59 65 -406 -60 callsubr
          406 248 -78 -73 vlineto
          -53 -26 -26 -53 hvcurveto
          10 callsubr
        </CharString>
        <CharString name="dvNN_DDHA">
          285 210 168 -23 callgsubr
          392 -137 rmoveto
          137 115 59 -737 -59 65 -406 -60 callsubr
          406 254 -78 -79 vlineto
          -31 callsubr
          endchar
        </CharString>
        <CharString name="dvNN_MA">
          431 725 432 44 callsubr
          -365 -76 callgsubr
          -333 -205 -23 callgsubr
          659 59 rmoveto
          -889 71 callsubr
          264 -131 229 callgsubr
          79 callgsubr
        </CharString>
        <CharString name="dvNN_NNA">
          402 540 168 -23 callgsubr
          -330 -395 -23 callgsubr
          630 59 rmoveto
          -860 71 callsubr
          96 -406 -60 callsubr
          406 87 276 callsubr
        </CharString>
        <CharString name="dvNN_R">
          -68 209 -50 rmoveto
          165 169 rlineto
          83 vlineto
          -254 -252 rlineto
          90 258 280 callgsubr
          355 96 vlineto
          -230 59 rmoveto
          -59 65 -366 -60 callsubr
          366 95 59 vlineto
          endchar
        </CharString>
        <CharString name="dvNN_RA">
          95 210 238 280 callgsubr
          325 96 vlineto
          317 59 rmoveto
          -547 -59 65 -336 hlineto
          -30 callsubr
          336 104 -324 10 callgsubr
        </CharString>
        <CharString name="dvNN_TTA">
          242 210 168 -23 callgsubr
          392 -137 300 callgsubr
          -694 -59 65 -406 -60 callsubr
          406 254 -78 -79 vlineto
          16 callgsubr
          endchar
        </CharString>
        <CharString name="dvNN_TTHA">
          276 571 267 callsubr
          -65 -73 callsubr
          65 -92 callsubr
          -361 -227 -23 callgsubr
          498 hmoveto
          59 -728 -59 65 -406 -60 callsubr
          406 194 -78 -19 vlineto
          -104 callsubr
          -26 callsubr
          107 -104 callgsubr
          137 callsubr
        </CharString>
        <CharString name="dvNN_VA">
          261 210 168 -23 callgsubr
          483 59 rmoveto
          -713 71 callsubr
          270 -392 vlineto
          -26 -8 -8 -97 callgsubr
          -249 79 callsubr
        </CharString>
</ttFont>
